{"glyphs":{"0":{"ha":972,"x_min":139,"x_max":833,"o":"m 556 972 l 417 972 l 417 1111 l 694 1111 l 694 972 l 833 972 l 833 139 l 694 139 l 694 0 l 556 0 l 556 972 m 278 0 l 139 0 l 139 833 l 278 833 l 278 972 l 417 972 l 417 0 l 556 0 l 556 -139 l 278 -139 l 278 0 "},"1":{"ha":972,"x_min":139,"x_max":833,"o":"m 417 972 l 278 972 l 278 833 l 417 833 l 417 0 l 556 0 l 556 -139 l 694 -139 l 694 0 l 833 0 l 833 139 l 694 139 l 694 972 l 556 972 l 556 1111 l 417 1111 l 417 972 m 139 833 l 139 694 l 278 694 l 278 833 l 139 833 "},"2":{"ha":972,"x_min":139,"x_max":972,"o":"m 417 278 l 417 139 l 833 139 l 833 0 l 694 0 l 694 -139 l 417 -139 l 417 0 l 278 0 l 278 -139 l 139 -139 l 139 278 l 278 278 l 278 417 l 417 417 l 417 556 l 556 556 l 556 972 l 417 972 l 417 1111 l 694 1111 l 694 972 l 833 972 l 833 556 l 694 556 l 694 417 l 556 417 l 556 278 l 417 278 m 278 694 l 139 694 l 139 833 l 278 833 l 278 694 m 417 833 l 278 833 l 278 972 l 417 972 l 417 833 m 972 139 l 833 139 l 833 278 l 972 278 l 972 139 "},"3":{"ha":972,"x_min":139,"x_max":833,"o":"m 556 556 l 417 556 l 417 694 l 556 694 l 556 972 l 417 972 l 417 1111 l 694 1111 l 694 972 l 833 972 l 833 694 l 694 694 l 694 556 l 833 556 l 833 139 l 694 139 l 694 0 l 556 0 l 556 556 m 278 0 l 139 0 l 139 139 l 278 139 l 278 278 l 417 278 l 417 0 l 556 0 l 556 -139 l 278 -139 l 278 0 m 278 694 l 139 694 l 139 833 l 278 833 l 278 694 m 417 417 l 278 417 l 278 556 l 417 556 l 417 417 m 417 833 l 278 833 l 278 972 l 417 972 l 417 833 "},"4":{"ha":972,"x_min":0,"x_max":972,"o":"m 417 1111 l 417 278 l 556 278 l 556 694 l 694 694 l 694 833 l 833 833 l 833 415 l 972 415 l 972 278 l 833 278 l 833 0 l 694 0 l 694 -139 l 556 -139 l 556 139 l 275 139 l 275 0 l 139 0 l 139 694 l 0 694 l 0 833 l 139 833 l 139 972 l 278 972 l 278 1111 l 417 1111 m 556 -278 l 417 -278 l 417 -139 l 556 -139 l 556 -278 "},"5":{"ha":972,"x_min":139,"x_max":833,"o":"m 556 556 l 278 556 l 278 417 l 139 417 l 139 972 l 278 972 l 278 1111 l 833 1111 l 833 972 l 694 972 l 694 833 l 419 833 l 419 694 l 694 694 l 694 556 l 833 556 l 833 139 l 694 139 l 694 0 l 556 0 l 556 556 m 278 0 l 139 0 l 139 139 l 278 139 l 278 278 l 417 278 l 417 0 l 556 0 l 556 -139 l 278 -139 l 278 0 "},"6":{"ha":972,"x_min":139,"x_max":833,"o":"m 417 417 l 417 0 l 556 0 l 556 -139 l 278 -139 l 278 0 l 139 0 l 139 833 l 278 833 l 278 972 l 417 972 l 417 556 l 556 556 l 556 694 l 694 694 l 694 556 l 833 556 l 833 139 l 694 139 l 694 0 l 556 0 l 556 417 l 417 417 m 556 972 l 417 972 l 417 1111 l 556 1111 l 556 972 m 694 833 l 556 833 l 556 972 l 694 972 l 694 833 m 833 694 l 694 694 l 694 833 l 833 833 l 833 694 "},"7":{"ha":972,"x_min":0,"x_max":972,"o":"m 556 -139 l 278 -139 l 278 417 l 417 417 l 417 694 l 556 694 l 556 833 l 139 833 l 139 971 l 278 971 l 278 1111 l 972 1111 l 972 972 l 833 972 l 833 694 l 694 694 l 694 417 l 556 417 l 556 -139 m 139 694 l 0 694 l 0 833 l 139 833 l 139 694 "},"8":{"ha":972,"x_min":139,"x_max":833,"o":"m 417 417 l 417 0 l 556 0 l 556 -139 l 278 -139 l 278 0 l 139 0 l 139 417 l 278 417 l 278 556 l 139 556 l 139 833 l 278 833 l 278 972 l 417 972 l 417 556 l 556 556 l 556 972 l 417 972 l 417 1111 l 694 1111 l 694 972 l 833 972 l 833 556 l 694 556 l 694 417 l 833 417 l 833 139 l 694 139 l 694 0 l 556 0 l 556 417 l 417 417 "},"9":{"ha":972,"x_min":139,"x_max":833,"o":"m 417 278 l 278 278 l 278 556 l 139 556 l 139 833 l 278 833 l 278 972 l 417 972 l 417 556 l 556 556 l 556 972 l 417 972 l 417 1111 l 694 1111 l 694 972 l 833 972 l 833 139 l 694 139 l 694 0 l 556 0 l 556 417 l 417 417 l 417 278 m 278 139 l 139 139 l 139 278 l 278 278 l 278 139 m 417 0 l 278 0 l 278 139 l 417 139 l 417 0 m 556 -139 l 417 -139 l 417 0 l 556 0 l 556 -139 "},"\u0000":{"ha":0,"x_min":0,"x_max":0,"o":""},"\r":{"ha":694,"x_min":0,"x_max":0,"o":""}," ":{"ha":972,"x_min":0,"x_max":0,"o":""},"A":{"ha":972,"x_min":0,"x_max":972,"o":"m 278 1111 l 556 1111 l 556 972 l 278 972 l 278 1111 m 417 -139 l 0 -139 l 0 139 l 139 139 l 139 0 l 417 0 l 417 -139 m 278 139 l 139 139 l 139 417 l 278 417 l 278 694 l 417 694 l 417 417 l 556 417 l 556 694 l 417 694 l 417 833 l 556 833 l 556 972 l 694 972 l 694 1111 l 833 1111 l 833 139 l 972 139 l 972 0 l 833 0 l 833 -139 l 694 -139 l 694 0 l 556 0 l 556 278 l 278 278 l 278 139 m 278 833 l 139 833 l 139 972 l 278 972 l 278 833 m 556 -278 l 417 -278 l 417 -139 l 556 -139 l 556 -278 "},"Á":{"ha":972,"x_min":0,"x_max":972,"o":"m 278 1111 l 556 1111 l 556 972 l 278 972 l 278 1111 m 417 -139 l 0 -139 l 0 139 l 139 139 l 139 0 l 417 0 l 417 -139 m 278 139 l 139 139 l 139 417 l 278 417 l 278 694 l 417 694 l 417 417 l 556 417 l 556 694 l 417 694 l 417 833 l 556 833 l 556 972 l 694 972 l 694 1111 l 833 1111 l 833 139 l 972 139 l 972 0 l 833 0 l 833 -139 l 694 -139 l 694 0 l 556 0 l 556 278 l 278 278 l 278 139 m 278 833 l 139 833 l 139 972 l 278 972 l 278 833 m 556 -278 l 417 -278 l 417 -139 l 556 -139 l 556 -278 "},"Â":{"ha":972,"x_min":0,"x_max":972,"o":"m 278 1111 l 556 1111 l 556 972 l 278 972 l 278 1111 m 417 -139 l 0 -139 l 0 139 l 139 139 l 139 0 l 417 0 l 417 -139 m 278 139 l 139 139 l 139 417 l 278 417 l 278 694 l 417 694 l 417 417 l 556 417 l 556 694 l 417 694 l 417 833 l 556 833 l 556 972 l 694 972 l 694 1111 l 833 1111 l 833 139 l 972 139 l 972 0 l 833 0 l 833 -139 l 694 -139 l 694 0 l 556 0 l 556 278 l 278 278 l 278 139 m 278 833 l 139 833 l 139 972 l 278 972 l 278 833 m 556 -278 l 417 -278 l 417 -139 l 556 -139 l 556 -278 "},"Ä":{"ha":972,"x_min":0,"x_max":972,"o":"m 278 1111 l 556 1111 l 556 972 l 278 972 l 278 1111 m 417 -139 l 0 -139 l 0 139 l 139 139 l 139 0 l 417 0 l 417 -139 m 278 139 l 139 139 l 139 417 l 278 417 l 278 694 l 417 694 l 417 417 l 556 417 l 556 694 l 417 694 l 417 833 l 556 833 l 556 972 l 694 972 l 694 1111 l 833 1111 l 833 139 l 972 139 l 972 0 l 833 0 l 833 -139 l 694 -139 l 694 0 l 556 0 l 556 278 l 278 278 l 278 139 m 278 833 l 139 833 l 139 972 l 278 972 l 278 833 m 556 -278 l 417 -278 l 417 -139 l 556 -139 l 556 -278 "},"À":{"ha":972,"x_min":0,"x_max":972,"o":"m 278 1111 l 556 1111 l 556 972 l 278 972 l 278 1111 m 417 -139 l 0 -139 l 0 139 l 139 139 l 139 0 l 417 0 l 417 -139 m 278 139 l 139 139 l 139 417 l 278 417 l 278 694 l 417 694 l 417 417 l 556 417 l 556 694 l 417 694 l 417 833 l 556 833 l 556 972 l 694 972 l 694 1111 l 833 1111 l 833 139 l 972 139 l 972 0 l 833 0 l 833 -139 l 694 -139 l 694 0 l 556 0 l 556 278 l 278 278 l 278 139 m 278 833 l 139 833 l 139 972 l 278 972 l 278 833 m 556 -278 l 417 -278 l 417 -139 l 556 -139 l 556 -278 "},"Å":{"ha":972,"x_min":0,"x_max":972,"o":"m 278 1111 l 556 1111 l 556 972 l 278 972 l 278 1111 m 417 -139 l 0 -139 l 0 139 l 139 139 l 139 0 l 417 0 l 417 -139 m 278 139 l 139 139 l 139 417 l 278 417 l 278 694 l 417 694 l 417 417 l 556 417 l 556 694 l 417 694 l 417 833 l 556 833 l 556 972 l 694 972 l 694 1111 l 833 1111 l 833 139 l 972 139 l 972 0 l 833 0 l 833 -139 l 694 -139 l 694 0 l 556 0 l 556 278 l 278 278 l 278 139 m 278 833 l 139 833 l 139 972 l 278 972 l 278 833 m 556 -278 l 417 -278 l 417 -139 l 556 -139 l 556 -278 "},"Ã":{"ha":972,"x_min":0,"x_max":972,"o":"m 278 1111 l 556 1111 l 556 972 l 278 972 l 278 1111 m 417 -139 l 0 -139 l 0 139 l 139 139 l 139 0 l 417 0 l 417 -139 m 278 139 l 139 139 l 139 417 l 278 417 l 278 694 l 417 694 l 417 417 l 556 417 l 556 694 l 417 694 l 417 833 l 556 833 l 556 972 l 694 972 l 694 1111 l 833 1111 l 833 139 l 972 139 l 972 0 l 833 0 l 833 -139 l 694 -139 l 694 0 l 556 0 l 556 278 l 278 278 l 278 139 m 278 833 l 139 833 l 139 972 l 278 972 l 278 833 m 556 -278 l 417 -278 l 417 -139 l 556 -139 l 556 -278 "},"Æ":{"ha":972,"x_min":0,"x_max":972,"o":"m 0 -139 l 278 -139 l 278 0 l 139 0 l 139 278 l 417 278 l 417 0 l 556 0 l 556 -139 l 833 -139 l 833 0 l 694 0 l 694 556 l 833 556 l 833 694 l 694 694 l 694 972 l 833 972 l 833 1111 l 556 1111 l 556 972 l 417 972 l 417 833 l 278 833 l 278 694 l 417 694 l 417 417 l 278 417 l 278 694 l 139 694 l 139 417 l 0 417 l 0 -139 m 0 972 l 0 833 l 139 833 l 139 972 l 0 972 m 139 1111 l 139 972 l 417 972 l 417 1111 l 139 1111 m 278 -139 l 278 -278 l 417 -278 l 417 -139 l 278 -139 m 833 139 l 833 0 l 972 0 l 972 139 l 833 139 m 833 972 l 833 833 l 972 833 l 972 972 l 833 972 "},"B":{"ha":972,"x_min":0,"x_max":972,"o":"m 139 972 l 139 1111 l 278 1111 l 278 972 l 417 972 l 417 556 l 556 556 l 556 417 l 417 417 l 417 0 l 139 0 l 139 278 l 0 278 l 0 417 l 139 417 l 139 833 l 0 833 l 0 972 l 139 972 m 139 -139 l 0 -139 l 0 0 l 139 0 l 139 -139 m 694 -139 l 417 -139 l 417 0 l 694 0 l 694 -139 m 556 972 l 417 972 l 417 1111 l 694 1111 l 694 972 l 833 972 l 833 694 l 694 694 l 694 556 l 556 556 l 556 972 m 833 0 l 694 0 l 694 556 l 833 556 l 833 417 l 972 417 l 972 139 l 833 139 l 833 0 "},"C":{"ha":972,"x_min":0,"x_max":972,"o":"m 417 833 l 278 833 l 278 972 l 417 972 l 417 1111 l 833 1111 l 833 972 l 694 972 l 694 278 l 556 278 l 556 139 l 417 139 l 417 833 m 139 139 l 0 139 l 0 694 l 139 694 l 139 833 l 278 833 l 278 139 l 417 139 l 417 0 l 694 0 l 694 -139 l 278 -139 l 278 0 l 139 0 l 139 139 m 833 0 l 694 0 l 694 139 l 833 139 l 833 0 m 972 139 l 833 139 l 833 278 l 972 278 l 972 139 m 972 833 l 833 833 l 833 972 l 972 972 l 972 833 "},"Ç":{"ha":972,"x_min":0,"x_max":972,"o":"m 417 972 l 278 972 l 278 833 l 417 833 l 417 139 l 556 139 l 556 278 l 694 278 l 694 972 l 833 972 l 833 1111 l 417 1111 l 417 972 m 0 694 l 0 139 l 139 139 l 139 0 l 278 0 l 278 -139 l 417 -139 l 417 -278 l 556 -278 l 556 -139 l 694 -139 l 694 0 l 417 0 l 417 139 l 278 139 l 278 833 l 139 833 l 139 694 l 0 694 m 694 139 l 694 0 l 833 0 l 833 139 l 694 139 m 833 278 l 833 139 l 972 139 l 972 278 l 833 278 m 833 972 l 833 833 l 972 833 l 972 972 l 833 972 "},"D":{"ha":972,"x_min":0,"x_max":972,"o":"m 139 278 l 0 278 l 0 417 l 139 417 l 139 833 l 0 833 l 0 972 l 139 972 l 139 1111 l 278 1111 l 278 972 l 417 972 l 417 0 l 139 0 l 139 278 m 139 -139 l 0 -139 l 0 0 l 139 0 l 139 -139 m 694 -139 l 417 -139 l 417 0 l 694 0 l 694 -139 m 694 972 l 417 972 l 417 1111 l 694 1111 l 694 972 m 833 0 l 694 0 l 694 972 l 833 972 l 833 833 l 972 833 l 972 139 l 833 139 l 833 0 "},"E":{"ha":972,"x_min":0,"x_max":972,"o":"m 417 833 l 278 833 l 278 972 l 417 972 l 417 1111 l 833 1111 l 833 972 l 694 972 l 694 694 l 833 694 l 833 556 l 694 556 l 694 278 l 556 278 l 556 139 l 417 139 l 417 833 m 139 139 l 0 139 l 0 694 l 139 694 l 139 833 l 278 833 l 278 139 l 417 139 l 417 0 l 694 0 l 694 -139 l 278 -139 l 278 0 l 139 0 l 139 139 m 833 0 l 694 0 l 694 139 l 833 139 l 833 0 m 972 139 l 833 139 l 833 278 l 972 278 l 972 139 m 972 833 l 833 833 l 833 972 l 972 972 l 972 833 "},"É":{"ha":972,"x_min":0,"x_max":972,"o":"m 417 833 l 278 833 l 278 972 l 417 972 l 417 1111 l 833 1111 l 833 972 l 694 972 l 694 694 l 833 694 l 833 556 l 694 556 l 694 278 l 556 278 l 556 139 l 417 139 l 417 833 m 139 139 l 0 139 l 0 694 l 139 694 l 139 833 l 278 833 l 278 139 l 417 139 l 417 0 l 694 0 l 694 -139 l 278 -139 l 278 0 l 139 0 l 139 139 m 833 0 l 694 0 l 694 139 l 833 139 l 833 0 m 972 139 l 833 139 l 833 278 l 972 278 l 972 139 m 972 833 l 833 833 l 833 972 l 972 972 l 972 833 "},"Ê":{"ha":972,"x_min":0,"x_max":972,"o":"m 417 833 l 278 833 l 278 972 l 417 972 l 417 1111 l 833 1111 l 833 972 l 694 972 l 694 694 l 833 694 l 833 556 l 694 556 l 694 278 l 556 278 l 556 139 l 417 139 l 417 833 m 139 139 l 0 139 l 0 694 l 139 694 l 139 833 l 278 833 l 278 139 l 417 139 l 417 0 l 694 0 l 694 -139 l 278 -139 l 278 0 l 139 0 l 139 139 m 833 0 l 694 0 l 694 139 l 833 139 l 833 0 m 972 139 l 833 139 l 833 278 l 972 278 l 972 139 m 972 833 l 833 833 l 833 972 l 972 972 l 972 833 "},"Ë":{"ha":972,"x_min":0,"x_max":972,"o":"m 417 833 l 278 833 l 278 972 l 417 972 l 417 1111 l 833 1111 l 833 972 l 694 972 l 694 694 l 833 694 l 833 556 l 694 556 l 694 278 l 556 278 l 556 139 l 417 139 l 417 833 m 139 139 l 0 139 l 0 694 l 139 694 l 139 833 l 278 833 l 278 139 l 417 139 l 417 0 l 694 0 l 694 -139 l 278 -139 l 278 0 l 139 0 l 139 139 m 833 0 l 694 0 l 694 139 l 833 139 l 833 0 m 972 139 l 833 139 l 833 278 l 972 278 l 972 139 m 972 833 l 833 833 l 833 972 l 972 972 l 972 833 "},"È":{"ha":972,"x_min":0,"x_max":972,"o":"m 417 833 l 278 833 l 278 972 l 417 972 l 417 1111 l 833 1111 l 833 972 l 694 972 l 694 694 l 833 694 l 833 556 l 694 556 l 694 278 l 556 278 l 556 139 l 417 139 l 417 833 m 139 139 l 0 139 l 0 694 l 139 694 l 139 833 l 278 833 l 278 139 l 417 139 l 417 0 l 694 0 l 694 -139 l 278 -139 l 278 0 l 139 0 l 139 139 m 833 0 l 694 0 l 694 139 l 833 139 l 833 0 m 972 139 l 833 139 l 833 278 l 972 278 l 972 139 m 972 833 l 833 833 l 833 972 l 972 972 l 972 833 "},"F":{"ha":972,"x_min":0,"x_max":972,"o":"m 556 972 l 417 972 l 417 1111 l 694 1111 l 694 972 l 833 972 l 833 833 l 694 833 l 694 556 l 833 556 l 833 417 l 694 417 l 694 0 l 556 0 l 556 972 m 139 -139 l 0 -139 l 0 0 l 139 0 l 139 -139 m 139 417 l 0 417 l 0 556 l 139 556 l 139 833 l 278 833 l 278 972 l 417 972 l 417 139 l 278 139 l 278 0 l 139 0 l 139 417 m 417 -278 l 139 -278 l 139 -139 l 417 -139 l 417 -278 m 556 -139 l 417 -139 l 417 0 l 556 0 l 556 -139 m 972 972 l 833 972 l 833 1111 l 972 1111 l 972 972 "},"G":{"ha":972,"x_min":0,"x_max":972,"o":"m 694 556 l 556 556 l 556 139 l 417 139 l 417 833 l 278 833 l 278 972 l 417 972 l 417 1111 l 694 1111 l 694 972 l 556 972 l 556 694 l 833 694 l 833 556 l 972 556 l 972 139 l 833 139 l 833 0 l 694 0 l 694 556 m 139 139 l 0 139 l 0 694 l 139 694 l 139 833 l 278 833 l 278 139 l 417 139 l 417 0 l 694 0 l 694 -139 l 278 -139 l 278 0 l 139 0 l 139 139 m 833 833 l 694 833 l 694 972 l 833 972 l 833 833 "},"H":{"ha":972,"x_min":0,"x_max":972,"o":"m 417 556 l 278 556 l 278 139 l 417 139 l 417 0 l 278 0 l 278 -139 l 139 -139 l 139 0 l 0 0 l 0 833 l 139 833 l 139 972 l 278 972 l 278 694 l 417 694 l 417 972 l 278 972 l 278 1111 l 694 1111 l 694 972 l 556 972 l 556 833 l 833 833 l 833 694 l 972 694 l 972 0 l 833 0 l 833 -139 l 694 -139 l 694 694 l 556 694 l 556 139 l 417 139 l 417 556 m 694 -278 l 556 -278 l 556 -139 l 694 -139 l 694 -278 "},"I":{"ha":972,"x_min":278,"x_max":972,"o":"m 694 1111 l 694 972 l 417 972 l 417 1111 l 694 1111 m 417 0 l 278 0 l 278 139 l 417 139 l 417 0 m 417 833 l 278 833 l 278 972 l 417 972 l 417 833 m 556 -139 l 417 -139 l 417 0 l 556 0 l 556 -139 m 556 417 l 417 417 l 417 556 l 556 556 l 556 833 l 694 833 l 694 972 l 833 972 l 833 139 l 694 139 l 694 0 l 556 0 l 556 417 m 972 972 l 833 972 l 833 1111 l 972 1111 l 972 972 "},"Í":{"ha":972,"x_min":278,"x_max":972,"o":"m 694 1111 l 694 972 l 417 972 l 417 1111 l 694 1111 m 417 0 l 278 0 l 278 139 l 417 139 l 417 0 m 417 833 l 278 833 l 278 972 l 417 972 l 417 833 m 556 -139 l 417 -139 l 417 0 l 556 0 l 556 -139 m 556 417 l 417 417 l 417 556 l 556 556 l 556 833 l 694 833 l 694 972 l 833 972 l 833 139 l 694 139 l 694 0 l 556 0 l 556 417 m 972 972 l 833 972 l 833 1111 l 972 1111 l 972 972 "},"Î":{"ha":972,"x_min":278,"x_max":972,"o":"m 694 1111 l 694 972 l 417 972 l 417 1111 l 694 1111 m 417 0 l 278 0 l 278 139 l 417 139 l 417 0 m 417 833 l 278 833 l 278 972 l 417 972 l 417 833 m 556 -139 l 417 -139 l 417 0 l 556 0 l 556 -139 m 556 417 l 417 417 l 417 556 l 556 556 l 556 833 l 694 833 l 694 972 l 833 972 l 833 139 l 694 139 l 694 0 l 556 0 l 556 417 m 972 972 l 833 972 l 833 1111 l 972 1111 l 972 972 "},"Ï":{"ha":972,"x_min":278,"x_max":972,"o":"m 694 1111 l 694 972 l 417 972 l 417 1111 l 694 1111 m 417 0 l 278 0 l 278 139 l 417 139 l 417 0 m 417 833 l 278 833 l 278 972 l 417 972 l 417 833 m 556 -139 l 417 -139 l 417 0 l 556 0 l 556 -139 m 556 417 l 417 417 l 417 556 l 556 556 l 556 833 l 694 833 l 694 972 l 833 972 l 833 139 l 694 139 l 694 0 l 556 0 l 556 417 m 972 972 l 833 972 l 833 1111 l 972 1111 l 972 972 "},"Ì":{"ha":972,"x_min":278,"x_max":972,"o":"m 694 1111 l 694 972 l 417 972 l 417 1111 l 694 1111 m 417 0 l 278 0 l 278 139 l 417 139 l 417 0 m 417 833 l 278 833 l 278 972 l 417 972 l 417 833 m 556 -139 l 417 -139 l 417 0 l 556 0 l 556 -139 m 556 417 l 417 417 l 417 556 l 556 556 l 556 833 l 694 833 l 694 972 l 833 972 l 833 139 l 694 139 l 694 0 l 556 0 l 556 417 m 972 972 l 833 972 l 833 1111 l 972 1111 l 972 972 "},"J":{"ha":972,"x_min":0,"x_max":972,"o":"m 556 417 l 417 417 l 417 556 l 556 556 l 556 833 l 694 833 l 694 972 l 833 972 l 833 139 l 694 139 l 694 0 l 556 0 l 556 417 m 139 -139 l 0 -139 l 0 0 l 139 0 l 139 139 l 278 139 l 278 0 l 556 0 l 556 -139 l 417 -139 l 417 -278 l 139 -278 l 139 -139 m 139 694 l 0 694 l 0 972 l 139 972 l 139 1111 l 694 1111 l 694 972 l 278 972 l 278 833 l 417 833 l 417 694 l 278 694 l 278 556 l 139 556 l 139 694 m 972 972 l 833 972 l 833 1111 l 972 1111 l 972 972 "},"K":{"ha":972,"x_min":0,"x_max":972,"o":"m 833 972 l 694 972 l 694 1111 l 833 1111 l 833 972 m 139 0 l 0 0 l 0 833 l 139 833 l 139 972 l 278 972 l 278 694 l 417 694 l 417 556 l 278 556 l 278 139 l 417 139 l 417 0 l 278 0 l 278 -139 l 139 -139 l 139 0 m 556 972 l 278 972 l 278 1111 l 556 1111 l 556 972 m 556 278 l 417 278 l 417 417 l 556 417 l 556 694 l 417 694 l 417 833 l 556 833 l 556 972 l 694 972 l 694 833 l 833 833 l 833 556 l 694 556 l 694 417 l 833 417 l 833 139 l 972 139 l 972 0 l 833 0 l 833 -139 l 694 -139 l 694 0 l 556 0 l 556 278 "},"L":{"ha":972,"x_min":0,"x_max":972,"o":"m 833 972 l 833 833 l 694 833 l 694 0 l 833 0 l 833 -139 l 417 -139 l 417 0 l 139 0 l 139 417 l 0 417 l 0 556 l 139 556 l 139 833 l 278 833 l 278 972 l 417 972 l 417 139 l 556 139 l 556 972 l 417 972 l 417 1111 l 694 1111 l 694 972 l 833 972 m 139 -139 l 0 -139 l 0 0 l 139 0 l 139 -139 m 972 0 l 833 0 l 833 139 l 972 139 l 972 0 m 972 972 l 833 972 l 833 1111 l 972 1111 l 972 972 "},"M":{"ha":972,"x_min":0,"x_max":972,"o":"m 972 0 l 833 0 l 833 -139 l 694 -139 l 694 972 l 833 972 l 833 833 l 972 833 l 972 0 m 139 -139 l 0 -139 l 0 972 l 139 972 l 139 694 l 278 694 l 278 972 l 417 972 l 417 1111 l 694 1111 l 694 972 l 556 972 l 556 0 l 417 0 l 417 -139 l 278 -139 l 278 0 l 139 0 l 139 -139 m 139 556 l 139 139 l 278 139 l 278 556 l 139 556 m 278 972 l 139 972 l 139 1111 l 278 1111 l 278 972 "},"N":{"ha":972,"x_min":0,"x_max":972,"o":"m 417 -139 l 278 -139 l 278 0 l 139 0 l 139 278 l 0 278 l 0 417 l 139 417 l 139 833 l 0 833 l 0 972 l 139 972 l 139 1111 l 278 1111 l 278 972 l 417 972 l 417 -139 m 556 972 l 417 972 l 417 1111 l 694 1111 l 694 972 l 833 972 l 833 139 l 972 139 l 972 0 l 833 0 l 833 -139 l 694 -139 l 694 0 l 556 0 l 556 972 "},"Ñ":{"ha":972,"x_min":0,"x_max":972,"o":"m 417 -139 l 278 -139 l 278 0 l 139 0 l 139 278 l 0 278 l 0 417 l 139 417 l 139 833 l 0 833 l 0 972 l 139 972 l 139 1111 l 278 1111 l 278 972 l 417 972 l 417 -139 m 556 972 l 417 972 l 417 1111 l 694 1111 l 694 972 l 833 972 l 833 139 l 972 139 l 972 0 l 833 0 l 833 -139 l 694 -139 l 694 0 l 556 0 l 556 972 "},"O":{"ha":972,"x_min":0,"x_max":972,"o":"m 694 1111 l 278 1111 l 278 972 l 139 972 l 139 833 l 0 833 l 0 139 l 139 139 l 139 0 l 278 0 l 278 833 l 417 833 l 417 972 l 694 972 l 694 1111 m 278 0 l 278 -139 l 694 -139 l 694 0 l 833 0 l 833 139 l 972 139 l 972 833 l 833 833 l 833 972 l 694 972 l 694 139 l 556 139 l 556 0 l 278 0 m 417 833 l 417 139 l 556 139 l 556 833 l 417 833 "},"Ó":{"ha":972,"x_min":0,"x_max":972,"o":"m 694 1111 l 278 1111 l 278 972 l 139 972 l 139 833 l 0 833 l 0 139 l 139 139 l 139 0 l 278 0 l 278 833 l 417 833 l 417 972 l 694 972 l 694 1111 m 278 0 l 278 -139 l 694 -139 l 694 0 l 833 0 l 833 139 l 972 139 l 972 833 l 833 833 l 833 972 l 694 972 l 694 139 l 556 139 l 556 0 l 278 0 m 417 833 l 417 139 l 556 139 l 556 833 l 417 833 "},"Ô":{"ha":972,"x_min":0,"x_max":972,"o":"m 694 1111 l 278 1111 l 278 972 l 139 972 l 139 833 l 0 833 l 0 139 l 139 139 l 139 0 l 278 0 l 278 833 l 417 833 l 417 972 l 694 972 l 694 1111 m 278 0 l 278 -139 l 694 -139 l 694 0 l 833 0 l 833 139 l 972 139 l 972 833 l 833 833 l 833 972 l 694 972 l 694 139 l 556 139 l 556 0 l 278 0 m 417 833 l 417 139 l 556 139 l 556 833 l 417 833 "},"Ö":{"ha":972,"x_min":0,"x_max":972,"o":"m 694 1111 l 278 1111 l 278 972 l 139 972 l 139 833 l 0 833 l 0 139 l 139 139 l 139 0 l 278 0 l 278 833 l 417 833 l 417 972 l 694 972 l 694 1111 m 278 0 l 278 -139 l 694 -139 l 694 0 l 833 0 l 833 139 l 972 139 l 972 833 l 833 833 l 833 972 l 694 972 l 694 139 l 556 139 l 556 0 l 278 0 m 417 833 l 417 139 l 556 139 l 556 833 l 417 833 "},"Ò":{"ha":972,"x_min":0,"x_max":972,"o":"m 694 1111 l 278 1111 l 278 972 l 139 972 l 139 833 l 0 833 l 0 139 l 139 139 l 139 0 l 278 0 l 278 833 l 417 833 l 417 972 l 694 972 l 694 1111 m 278 0 l 278 -139 l 694 -139 l 694 0 l 833 0 l 833 139 l 972 139 l 972 833 l 833 833 l 833 972 l 694 972 l 694 139 l 556 139 l 556 0 l 278 0 m 417 833 l 417 139 l 556 139 l 556 833 l 417 833 "},"Ø":{"ha":972,"x_min":0,"x_max":972,"o":"m 694 1111 l 278 1111 l 278 972 l 139 972 l 139 833 l 0 833 l 0 139 l 139 139 l 139 0 l 278 0 l 278 -139 l 694 -139 l 694 0 l 833 0 l 833 139 l 972 139 l 972 833 l 833 833 l 833 972 l 694 972 l 694 1111 m 0 0 l 0 -139 l 139 -139 l 139 0 l 0 0 m 417 278 l 278 278 l 278 833 l 417 833 l 417 972 l 556 972 l 556 694 l 694 694 l 694 139 l 556 139 l 556 0 l 417 0 l 417 278 m 417 694 l 417 278 l 556 278 l 556 694 l 417 694 m 833 1111 l 833 972 l 972 972 l 972 1111 l 833 1111 "},"Õ":{"ha":972,"x_min":0,"x_max":972,"o":"m 694 1111 l 278 1111 l 278 972 l 139 972 l 139 833 l 0 833 l 0 139 l 139 139 l 139 0 l 278 0 l 278 833 l 417 833 l 417 972 l 694 972 l 694 1111 m 278 0 l 278 -139 l 694 -139 l 694 0 l 833 0 l 833 139 l 972 139 l 972 833 l 833 833 l 833 972 l 694 972 l 694 139 l 556 139 l 556 0 l 278 0 m 417 833 l 417 139 l 556 139 l 556 833 l 417 833 "},"Œ":{"ha":972,"x_min":0,"x_max":972,"o":"m 556 417 l 694 417 l 694 556 l 556 556 l 556 972 l 694 972 l 694 556 l 833 556 l 833 694 l 972 694 l 972 972 l 833 972 l 833 1111 l 278 1111 l 278 972 l 139 972 l 139 833 l 0 833 l 0 139 l 139 139 l 139 0 l 278 0 l 278 -139 l 694 -139 l 694 0 l 417 0 l 417 139 l 278 139 l 278 833 l 417 833 l 417 139 l 556 139 l 556 417 m 694 139 l 694 0 l 833 0 l 833 139 l 694 139 m 833 278 l 833 139 l 972 139 l 972 278 l 833 278 "},"P":{"ha":972,"x_min":0,"x_max":972,"o":"m 556 972 l 417 972 l 417 1111 l 833 1111 l 833 972 l 972 972 l 972 278 l 833 278 l 833 139 l 694 139 l 694 833 l 556 833 l 556 972 m 139 0 l 0 0 l 0 139 l 139 139 l 139 417 l 0 417 l 0 556 l 139 556 l 139 833 l 0 833 l 0 972 l 139 972 l 139 1111 l 278 1111 l 278 972 l 417 972 l 417 139 l 694 139 l 694 0 l 417 0 l 417 -139 l 278 -139 l 278 -278 l 139 -278 l 139 0 "},"Q":{"ha":972,"x_min":0,"x_max":972,"o":"m 972 -278 l 833 -278 l 833 -139 l 972 -139 l 972 -278 m 139 139 l 0 139 l 0 833 l 139 833 l 139 972 l 278 972 l 278 1111 l 694 1111 l 694 972 l 417 972 l 417 833 l 278 833 l 278 0 l 139 0 l 139 139 m 833 -139 l 278 -139 l 278 0 l 556 0 l 556 139 l 694 139 l 694 972 l 833 972 l 833 833 l 972 833 l 972 139 l 833 139 l 833 -139 m 556 139 l 417 139 l 417 833 l 556 833 l 556 139 "},"R":{"ha":972,"x_min":0,"x_max":972,"o":"m 833 556 l 694 556 l 694 417 l 833 417 l 833 139 l 972 139 l 972 0 l 833 0 l 833 -139 l 694 -139 l 694 0 l 556 0 l 556 417 l 417 417 l 417 0 l 278 0 l 278 -139 l 139 -139 l 139 278 l 0 278 l 0 417 l 139 417 l 139 833 l 0 833 l 0 972 l 139 972 l 139 1111 l 278 1111 l 278 972 l 417 972 l 417 556 l 556 556 l 556 972 l 417 972 l 417 1111 l 694 1111 l 694 972 l 833 972 l 833 556 "},"S":{"ha":972,"x_min":0,"x_max":972,"o":"m 556 417 l 278 417 l 278 556 l 139 556 l 139 972 l 278 972 l 278 1111 l 694 1111 l 694 972 l 833 972 l 833 694 l 694 694 l 694 556 l 833 556 l 833 417 l 972 417 l 972 139 l 833 139 l 833 0 l 694 0 l 694 278 l 556 278 l 556 417 m 139 -139 l 0 -139 l 0 0 l 139 0 l 139 -139 m 278 278 l 0 278 l 0 417 l 278 417 l 278 278 m 417 0 l 139 0 l 139 139 l 417 139 l 417 0 m 694 -139 l 417 -139 l 417 0 l 694 0 l 694 -139 m 417 972 l 417 556 l 556 556 l 556 972 l 417 972 m 972 972 l 833 972 l 833 1111 l 972 1111 l 972 972 "},"T":{"ha":972,"x_min":0,"x_max":972,"o":"m 139 833 l 139 972 l 278 972 l 278 1111 l 556 1111 l 556 972 l 833 972 l 833 833 l 694 833 l 694 278 l 556 278 l 556 139 l 417 139 l 417 833 l 139 833 m 139 139 l 0 139 l 0 556 l 139 556 l 139 694 l 278 694 l 278 139 l 417 139 l 417 0 l 694 0 l 694 -139 l 278 -139 l 278 0 l 139 0 l 139 139 m 139 694 l 0 694 l 0 833 l 139 833 l 139 694 m 833 0 l 694 0 l 694 139 l 833 139 l 833 0 m 972 139 l 833 139 l 833 278 l 972 278 l 972 139 m 972 972 l 833 972 l 833 1111 l 972 1111 l 972 972 "},"U":{"ha":972,"x_min":0,"x_max":972,"o":"m 694 1111 l 694 972 l 833 972 l 833 139 l 972 139 l 972 0 l 833 0 l 833 -139 l 694 -139 l 694 0 l 417 0 l 417 -139 l 278 -139 l 278 0 l 139 0 l 139 278 l 0 278 l 0 417 l 139 417 l 139 833 l 0 833 l 0 972 l 139 972 l 139 1111 l 278 1111 l 278 972 l 417 972 l 417 139 l 556 139 l 556 1111 l 694 1111 "},"Ú":{"ha":972,"x_min":0,"x_max":972,"o":"m 694 1111 l 694 972 l 833 972 l 833 139 l 972 139 l 972 0 l 833 0 l 833 -139 l 694 -139 l 694 0 l 417 0 l 417 -139 l 278 -139 l 278 0 l 139 0 l 139 278 l 0 278 l 0 417 l 139 417 l 139 833 l 0 833 l 0 972 l 139 972 l 139 1111 l 278 1111 l 278 972 l 417 972 l 417 139 l 556 139 l 556 1111 l 694 1111 "},"Û":{"ha":972,"x_min":0,"x_max":972,"o":"m 694 1111 l 694 972 l 833 972 l 833 139 l 972 139 l 972 0 l 833 0 l 833 -139 l 694 -139 l 694 0 l 417 0 l 417 -139 l 278 -139 l 278 0 l 139 0 l 139 278 l 0 278 l 0 417 l 139 417 l 139 833 l 0 833 l 0 972 l 139 972 l 139 1111 l 278 1111 l 278 972 l 417 972 l 417 139 l 556 139 l 556 1111 l 694 1111 "},"Ü":{"ha":972,"x_min":0,"x_max":972,"o":"m 694 1111 l 694 972 l 833 972 l 833 139 l 972 139 l 972 0 l 833 0 l 833 -139 l 694 -139 l 694 0 l 417 0 l 417 -139 l 278 -139 l 278 0 l 139 0 l 139 278 l 0 278 l 0 417 l 139 417 l 139 833 l 0 833 l 0 972 l 139 972 l 139 1111 l 278 1111 l 278 972 l 417 972 l 417 139 l 556 139 l 556 1111 l 694 1111 "},"Ù":{"ha":972,"x_min":0,"x_max":972,"o":"m 694 1111 l 694 972 l 833 972 l 833 139 l 972 139 l 972 0 l 833 0 l 833 -139 l 694 -139 l 694 0 l 417 0 l 417 -139 l 278 -139 l 278 0 l 139 0 l 139 278 l 0 278 l 0 417 l 139 417 l 139 833 l 0 833 l 0 972 l 139 972 l 139 1111 l 278 1111 l 278 972 l 417 972 l 417 139 l 556 139 l 556 1111 l 694 1111 "},"V":{"ha":972,"x_min":0,"x_max":833,"o":"m 556 -139 l 278 -139 l 278 0 l 139 0 l 139 278 l 0 278 l 0 417 l 139 417 l 139 833 l 0 833 l 0 972 l 139 972 l 139 1111 l 278 1111 l 278 972 l 417 972 l 417 0 l 556 0 l 556 -139 m 694 0 l 556 0 l 556 1111 l 694 1111 l 694 972 l 833 972 l 833 139 l 694 139 l 694 0 "},"W":{"ha":972,"x_min":0,"x_max":972,"o":"m 278 -139 l 139 -139 l 139 0 l 278 0 l 278 -139 m 139 0 l 0 0 l 0 1111 l 139 1111 l 139 972 l 278 972 l 278 1111 l 417 1111 l 417 972 l 556 972 l 556 0 l 694 0 l 694 -139 l 417 -139 l 417 0 l 278 0 l 278 278 l 139 278 l 139 0 m 139 833 l 139 417 l 278 417 l 278 833 l 139 833 m 833 0 l 694 0 l 694 1111 l 833 1111 l 833 972 l 972 972 l 972 139 l 833 139 l 833 0 "},"X":{"ha":972,"x_min":139,"x_max":972,"o":"m 417 417 l 278 417 l 278 556 l 417 556 l 417 833 l 278 833 l 278 972 l 417 972 l 417 1111 l 556 1111 l 556 972 l 694 972 l 694 556 l 833 556 l 833 417 l 694 417 l 694 139 l 833 139 l 833 0 l 694 0 l 694 -139 l 556 -139 l 556 0 l 417 0 l 417 417 m 417 -139 l 139 -139 l 139 139 l 278 139 l 278 0 l 417 0 l 417 -139 m 278 694 l 139 694 l 139 833 l 278 833 l 278 694 m 833 972 l 694 972 l 694 1111 l 972 1111 l 972 833 l 833 833 l 833 972 m 972 139 l 833 139 l 833 278 l 972 278 l 972 139 "},"Y":{"ha":972,"x_min":0,"x_max":972,"o":"m 0 -139 l 139 -139 l 139 -278 l 556 -278 l 556 -139 l 278 -139 l 278 0 l 556 0 l 556 139 l 417 139 l 417 972 l 278 972 l 278 1111 l 139 1111 l 139 972 l 0 972 l 0 833 l 139 833 l 139 417 l 0 417 l 0 278 l 139 278 l 139 0 l 0 0 l 0 -139 m 556 0 l 556 -139 l 833 -139 l 833 0 l 556 0 m 556 1111 l 556 139 l 694 139 l 694 278 l 833 278 l 833 972 l 694 972 l 694 1111 l 556 1111 m 833 -139 l 833 -278 l 972 -278 l 972 -139 l 833 -139 "},"Ý":{"ha":972,"x_min":0,"x_max":972,"o":"m 0 -139 l 139 -139 l 139 -278 l 556 -278 l 556 -139 l 278 -139 l 278 0 l 556 0 l 556 139 l 417 139 l 417 972 l 278 972 l 278 1111 l 139 1111 l 139 972 l 0 972 l 0 833 l 139 833 l 139 417 l 0 417 l 0 278 l 139 278 l 139 0 l 0 0 l 0 -139 m 556 0 l 556 -139 l 833 -139 l 833 0 l 556 0 m 556 1111 l 556 139 l 694 139 l 694 278 l 833 278 l 833 972 l 694 972 l 694 1111 l 556 1111 m 833 -139 l 833 -278 l 972 -278 l 972 -139 l 833 -139 "},"Ÿ":{"ha":972,"x_min":0,"x_max":972,"o":"m 0 -139 l 139 -139 l 139 -278 l 556 -278 l 556 -139 l 278 -139 l 278 0 l 556 0 l 556 139 l 417 139 l 417 972 l 278 972 l 278 1111 l 139 1111 l 139 972 l 0 972 l 0 833 l 139 833 l 139 417 l 0 417 l 0 278 l 139 278 l 139 0 l 0 0 l 0 -139 m 556 0 l 556 -139 l 833 -139 l 833 0 l 556 0 m 556 1111 l 556 139 l 694 139 l 694 278 l 833 278 l 833 972 l 694 972 l 694 1111 l 556 1111 m 833 -139 l 833 -278 l 972 -278 l 972 -139 l 833 -139 "},"Ỳ":{"ha":972,"x_min":0,"x_max":972,"o":"m 0 -139 l 139 -139 l 139 -278 l 556 -278 l 556 -139 l 278 -139 l 278 0 l 556 0 l 556 139 l 417 139 l 417 972 l 278 972 l 278 1111 l 139 1111 l 139 972 l 0 972 l 0 833 l 139 833 l 139 417 l 0 417 l 0 278 l 139 278 l 139 0 l 0 0 l 0 -139 m 556 0 l 556 -139 l 833 -139 l 833 0 l 556 0 m 556 1111 l 556 139 l 694 139 l 694 278 l 833 278 l 833 972 l 694 972 l 694 1111 l 556 1111 m 833 -139 l 833 -278 l 972 -278 l 972 -139 l 833 -139 "},"Z":{"ha":972,"x_min":0,"x_max":972,"o":"m 278 972 l 278 1111 l 972 1111 l 972 972 l 833 972 l 833 694 l 694 694 l 694 833 l 139 833 l 139 972 l 278 972 m 139 -139 l 0 -139 l 0 0 l 139 0 l 139 -139 m 139 694 l 0 694 l 0 833 l 139 833 l 139 694 m 278 0 l 139 0 l 139 139 l 278 139 l 278 278 l 417 278 l 417 139 l 833 139 l 833 0 l 694 0 l 694 -139 l 278 -139 l 278 0 m 278 556 l 139 556 l 139 694 l 278 694 l 278 556 m 417 417 l 278 417 l 278 556 l 556 556 l 556 694 l 694 694 l 694 556 l 833 556 l 833 417 l 556 417 l 556 278 l 417 278 l 417 417 m 972 139 l 833 139 l 833 278 l 972 278 l 972 139 "},"a":{"ha":972,"x_min":139,"x_max":972,"o":"m 694 0 l 556 0 l 556 694 l 417 694 l 417 833 l 694 833 l 694 694 l 833 694 l 833 139 l 972 139 l 972 0 l 833 0 l 833 -139 l 694 -139 l 694 0 m 278 0 l 139 0 l 139 278 l 278 278 l 278 417 l 417 417 l 417 0 l 556 0 l 556 -139 l 278 -139 l 278 0 m 278 417 l 139 417 l 139 556 l 278 556 l 278 417 m 417 556 l 278 556 l 278 694 l 417 694 l 417 556 "},"á":{"ha":972,"x_min":139,"x_max":972,"o":"m 556 694 l 417 694 l 417 972 l 556 972 l 556 833 l 694 833 l 694 694 l 833 694 l 833 139 l 972 139 l 972 0 l 833 0 l 833 -139 l 694 -139 l 694 0 l 556 0 l 556 694 m 278 0 l 139 0 l 139 278 l 278 278 l 278 417 l 417 417 l 417 0 l 556 0 l 556 -139 l 278 -139 l 278 0 m 278 417 l 139 417 l 139 556 l 278 556 l 278 417 m 417 556 l 278 556 l 278 694 l 417 694 l 417 556 m 694 972 l 556 972 l 556 1111 l 694 1111 l 694 972 "},"â":{"ha":972,"x_min":139,"x_max":972,"o":"m 694 972 l 417 972 l 417 1111 l 694 1111 l 694 972 m 278 0 l 139 0 l 139 278 l 278 278 l 278 417 l 417 417 l 417 0 l 556 0 l 556 -139 l 278 -139 l 278 0 m 278 417 l 139 417 l 139 556 l 278 556 l 278 417 m 417 556 l 278 556 l 278 694 l 417 694 l 417 556 m 417 833 l 278 833 l 278 972 l 417 972 l 417 833 m 556 694 l 417 694 l 417 833 l 694 833 l 694 694 l 833 694 l 833 139 l 972 139 l 972 0 l 833 0 l 833 -139 l 694 -139 l 694 0 l 556 0 l 556 694 m 833 833 l 694 833 l 694 972 l 833 972 l 833 833 "},"ä":{"ha":972,"x_min":139,"x_max":972,"o":"m 694 972 l 556 972 l 556 1111 l 694 1111 l 694 972 m 278 0 l 139 0 l 139 278 l 278 278 l 278 417 l 417 417 l 417 0 l 556 0 l 556 -139 l 278 -139 l 278 0 m 278 417 l 139 417 l 139 556 l 278 556 l 278 417 m 417 556 l 278 556 l 278 694 l 417 694 l 417 556 m 417 972 l 278 972 l 278 1111 l 417 1111 l 417 972 m 556 694 l 417 694 l 417 833 l 694 833 l 694 694 l 833 694 l 833 139 l 972 139 l 972 0 l 833 0 l 833 -139 l 694 -139 l 694 0 l 556 0 l 556 694 "},"à":{"ha":972,"x_min":139,"x_max":972,"o":"m 694 0 l 556 0 l 556 694 l 417 694 l 417 833 l 556 833 l 556 972 l 694 972 l 694 694 l 833 694 l 833 139 l 972 139 l 972 0 l 833 0 l 833 -139 l 694 -139 l 694 0 m 278 0 l 139 0 l 139 278 l 278 278 l 278 417 l 417 417 l 417 0 l 556 0 l 556 -139 l 278 -139 l 278 0 m 278 417 l 139 417 l 139 556 l 278 556 l 278 417 m 417 556 l 278 556 l 278 694 l 417 694 l 417 556 m 556 972 l 417 972 l 417 1111 l 556 1111 l 556 972 "},"å":{"ha":972,"x_min":139,"x_max":972,"o":"m 694 1111 l 556 1111 l 556 972 l 694 972 l 694 1111 m 278 0 l 139 0 l 139 278 l 278 278 l 278 417 l 139 417 l 139 556 l 278 556 l 278 694 l 417 694 l 417 833 l 694 833 l 694 694 l 833 694 l 833 139 l 972 139 l 972 0 l 833 0 l 833 -139 l 694 -139 l 694 0 l 556 0 l 556 -139 l 278 -139 l 278 0 m 278 556 l 278 417 l 417 417 l 417 0 l 556 0 l 556 694 l 417 694 l 417 556 l 278 556 "},"ã":{"ha":972,"x_min":139,"x_max":972,"o":"m 694 0 l 556 0 l 556 694 l 417 694 l 417 833 l 694 833 l 694 694 l 833 694 l 833 139 l 972 139 l 972 0 l 833 0 l 833 -139 l 694 -139 l 694 0 m 278 0 l 139 0 l 139 278 l 278 278 l 278 417 l 417 417 l 417 0 l 556 0 l 556 -139 l 278 -139 l 278 0 m 278 417 l 139 417 l 139 556 l 278 556 l 278 417 m 417 556 l 278 556 l 278 694 l 417 694 l 417 556 m 417 972 l 556 972 l 556 1111 l 417 1111 l 417 972 m 278 972 l 278 833 l 417 833 l 417 972 l 278 972 m 556 972 l 556 833 l 694 833 l 694 972 l 556 972 m 694 1111 l 694 972 l 833 972 l 833 1111 l 694 1111 "},"æ":{"ha":972,"x_min":0,"x_max":972,"o":"m 278 694 l 139 694 l 139 556 l 278 556 l 278 694 m 0 278 l 0 0 l 139 0 l 139 -139 l 417 -139 l 417 0 l 278 0 l 278 417 l 139 417 l 139 278 l 0 278 m 0 556 l 0 417 l 139 417 l 139 556 l 0 556 m 278 556 l 278 417 l 417 417 l 417 0 l 556 0 l 556 278 l 694 278 l 694 417 l 556 417 l 556 694 l 694 694 l 694 417 l 972 417 l 972 694 l 833 694 l 833 833 l 278 833 l 278 694 l 417 694 l 417 556 l 278 556 m 556 0 l 556 -139 l 833 -139 l 833 0 l 556 0 m 833 139 l 833 0 l 972 0 l 972 139 l 833 139 "},"b":{"ha":972,"x_min":139,"x_max":833,"o":"m 278 0 l 139 0 l 139 972 l 278 972 l 278 1111 l 417 1111 l 417 833 l 694 833 l 694 694 l 833 694 l 833 139 l 694 139 l 694 0 l 556 0 l 556 694 l 417 694 l 417 0 l 556 0 l 556 -139 l 278 -139 l 278 0 "},"c":{"ha":972,"x_min":139,"x_max":833,"o":"m 417 694 l 417 0 l 694 0 l 694 -139 l 278 -139 l 278 0 l 139 0 l 139 556 l 278 556 l 278 694 l 417 694 m 556 694 l 417 694 l 417 833 l 694 833 l 694 694 l 833 694 l 833 556 l 694 556 l 694 417 l 556 417 l 556 694 m 833 0 l 694 0 l 694 139 l 833 139 l 833 0 "},"ç":{"ha":972,"x_min":139,"x_max":833,"o":"m 278 0 l 278 -139 l 417 -139 l 417 -278 l 556 -278 l 556 -139 l 694 -139 l 694 0 l 417 0 l 417 694 l 278 694 l 278 556 l 139 556 l 139 0 l 278 0 m 417 833 l 417 694 l 556 694 l 556 417 l 694 417 l 694 556 l 833 556 l 833 694 l 694 694 l 694 833 l 417 833 m 694 139 l 694 0 l 833 0 l 833 139 l 694 139 "},"d":{"ha":972,"x_min":139,"x_max":833,"o":"m 278 833 l 139 833 l 139 972 l 556 972 l 556 833 l 694 833 l 694 694 l 833 694 l 833 139 l 694 139 l 694 0 l 556 0 l 556 556 l 417 556 l 417 694 l 278 694 l 278 833 m 278 0 l 139 0 l 139 417 l 278 417 l 278 556 l 417 556 l 417 0 l 556 0 l 556 -139 l 278 -139 l 278 0 "},"e":{"ha":972,"x_min":139,"x_max":833,"o":"m 556 417 l 556 278 l 417 278 l 417 0 l 694 0 l 694 -139 l 278 -139 l 278 0 l 139 0 l 139 556 l 278 556 l 278 694 l 417 694 l 417 417 l 556 417 m 556 694 l 417 694 l 417 833 l 694 833 l 694 694 l 833 694 l 833 417 l 556 417 l 556 694 m 833 0 l 694 0 l 694 139 l 833 139 l 833 0 "},"é":{"ha":972,"x_min":139,"x_max":833,"o":"m 694 972 l 556 972 l 556 1111 l 694 1111 l 694 972 m 278 0 l 139 0 l 139 556 l 278 556 l 278 694 l 417 694 l 417 417 l 556 417 l 556 278 l 417 278 l 417 0 l 694 0 l 694 -139 l 278 -139 l 278 0 m 556 694 l 417 694 l 417 972 l 556 972 l 556 833 l 694 833 l 694 694 l 833 694 l 833 417 l 556 417 l 556 694 m 833 0 l 694 0 l 694 139 l 833 139 l 833 0 "},"ê":{"ha":972,"x_min":139,"x_max":833,"o":"m 694 972 l 417 972 l 417 1111 l 694 1111 l 694 972 m 278 0 l 139 0 l 139 556 l 278 556 l 278 694 l 417 694 l 417 417 l 556 417 l 556 278 l 417 278 l 417 0 l 694 0 l 694 -139 l 278 -139 l 278 0 m 417 833 l 278 833 l 278 972 l 417 972 l 417 833 m 556 694 l 417 694 l 417 833 l 694 833 l 694 694 l 833 694 l 833 417 l 556 417 l 556 694 m 833 0 l 694 0 l 694 139 l 833 139 l 833 0 m 833 833 l 694 833 l 694 972 l 833 972 l 833 833 "},"ë":{"ha":972,"x_min":139,"x_max":833,"o":"m 694 972 l 556 972 l 556 1111 l 694 1111 l 694 972 m 278 0 l 139 0 l 139 556 l 278 556 l 278 694 l 417 694 l 417 417 l 556 417 l 556 278 l 417 278 l 417 0 l 694 0 l 694 -139 l 278 -139 l 278 0 m 417 972 l 278 972 l 278 1111 l 417 1111 l 417 972 m 556 694 l 417 694 l 417 833 l 694 833 l 694 694 l 833 694 l 833 417 l 556 417 l 556 694 m 833 0 l 694 0 l 694 139 l 833 139 l 833 0 "},"è":{"ha":972,"x_min":139,"x_max":833,"o":"m 417 1111 l 556 1111 l 556 972 l 417 972 l 417 1111 m 278 0 l 139 0 l 139 556 l 278 556 l 278 694 l 417 694 l 417 417 l 556 417 l 556 278 l 417 278 l 417 0 l 694 0 l 694 -139 l 278 -139 l 278 0 m 556 694 l 417 694 l 417 833 l 556 833 l 556 972 l 694 972 l 694 694 l 833 694 l 833 417 l 556 417 l 556 694 m 833 0 l 694 0 l 694 139 l 833 139 l 833 0 "},"f":{"ha":972,"x_min":139,"x_max":972,"o":"m 833 556 l 556 556 l 556 0 l 694 0 l 694 -139 l 556 -139 l 556 -278 l 417 -278 l 417 -139 l 278 -139 l 278 556 l 139 556 l 139 694 l 278 694 l 278 833 l 417 833 l 417 972 l 556 972 l 556 694 l 694 694 l 694 972 l 556 972 l 556 1111 l 833 1111 l 833 972 l 972 972 l 972 833 l 833 833 l 833 556 "},"g":{"ha":972,"x_min":139,"x_max":833,"o":"m 556 833 l 556 694 l 417 694 l 417 833 l 556 833 m 278 -139 l 139 -139 l 139 0 l 278 0 l 278 -139 m 278 278 l 139 278 l 139 556 l 278 556 l 278 694 l 417 694 l 417 278 l 556 278 l 556 694 l 694 694 l 694 833 l 833 833 l 833 0 l 694 0 l 694 -139 l 556 -139 l 556 139 l 417 139 l 417 0 l 278 0 l 278 278 m 556 -278 l 278 -278 l 278 -139 l 556 -139 l 556 -278 "},"h":{"ha":972,"x_min":0,"x_max":833,"o":"m 417 1111 l 417 694 l 556 694 l 556 833 l 694 833 l 694 694 l 833 694 l 833 0 l 694 0 l 694 -139 l 556 -139 l 556 556 l 417 556 l 417 139 l 278 139 l 278 0 l 139 0 l 139 694 l 0 694 l 0 833 l 139 833 l 139 972 l 278 972 l 278 1111 l 417 1111 m 556 -278 l 417 -278 l 417 -139 l 556 -139 l 556 -278 "},"i":{"ha":972,"x_min":139,"x_max":972,"o":"m 833 0 l 694 0 l 694 -139 l 556 -139 l 556 0 l 417 0 l 417 417 l 278 417 l 278 556 l 417 556 l 417 694 l 556 694 l 556 833 l 694 833 l 694 139 l 833 139 l 833 0 m 278 278 l 139 278 l 139 417 l 278 417 l 278 278 m 556 833 l 417 833 l 417 972 l 556 972 l 556 833 m 694 972 l 556 972 l 556 1111 l 694 1111 l 694 972 m 972 139 l 833 139 l 833 278 l 972 278 l 972 139 "},"ı":{"ha":972,"x_min":139,"x_max":972,"o":"m 556 -139 l 694 -139 l 694 0 l 833 0 l 833 139 l 694 139 l 694 833 l 556 833 l 556 694 l 417 694 l 417 556 l 278 556 l 278 417 l 417 417 l 417 0 l 556 0 l 556 -139 m 139 417 l 139 278 l 278 278 l 278 417 l 139 417 m 833 278 l 833 139 l 972 139 l 972 278 l 833 278 "},"í":{"ha":972,"x_min":139,"x_max":972,"o":"m 417 833 l 278 833 l 278 694 l 417 694 l 417 833 m 278 278 l 139 278 l 139 417 l 278 417 l 278 556 l 417 556 l 417 694 l 556 694 l 556 833 l 417 833 l 417 972 l 556 972 l 556 1111 l 694 1111 l 694 972 l 556 972 l 556 833 l 694 833 l 694 139 l 833 139 l 833 278 l 972 278 l 972 139 l 833 139 l 833 0 l 694 0 l 694 -139 l 556 -139 l 556 0 l 417 0 l 417 417 l 278 417 l 278 278 "},"î":{"ha":972,"x_min":139,"x_max":972,"o":"m 694 1111 l 694 972 l 556 972 l 556 1111 l 694 1111 m 278 278 l 139 278 l 139 417 l 278 417 l 278 278 m 417 417 l 278 417 l 278 556 l 417 556 l 417 694 l 556 694 l 556 833 l 694 833 l 694 139 l 833 139 l 833 0 l 694 0 l 694 -139 l 556 -139 l 556 0 l 417 0 l 417 417 m 556 833 l 417 833 l 417 972 l 556 972 l 556 833 m 694 972 l 694 833 l 833 833 l 833 972 l 694 972 m 972 139 l 833 139 l 833 278 l 972 278 l 972 139 "},"ï":{"ha":972,"x_min":139,"x_max":972,"o":"m 833 0 l 694 0 l 694 -139 l 556 -139 l 556 0 l 417 0 l 417 417 l 278 417 l 278 556 l 417 556 l 417 694 l 556 694 l 556 833 l 694 833 l 694 139 l 833 139 l 833 0 m 278 278 l 139 278 l 139 417 l 278 417 l 278 278 m 556 972 l 417 972 l 417 1111 l 556 1111 l 556 972 m 833 972 l 694 972 l 694 1111 l 833 1111 l 833 972 m 972 139 l 833 139 l 833 278 l 972 278 l 972 139 "},"ì":{"ha":972,"x_min":139,"x_max":972,"o":"m 556 -139 l 694 -139 l 694 0 l 833 0 l 833 139 l 694 139 l 694 833 l 556 833 l 556 694 l 417 694 l 417 556 l 278 556 l 278 417 l 417 417 l 417 0 l 556 0 l 556 -139 m 139 417 l 139 278 l 278 278 l 278 417 l 139 417 m 556 1111 l 556 972 l 694 972 l 694 1111 l 556 1111 m 694 972 l 694 833 l 833 833 l 833 972 l 694 972 m 833 278 l 833 139 l 972 139 l 972 278 l 833 278 "},"j":{"ha":972,"x_min":0,"x_max":972,"o":"m 556 833 l 694 833 l 694 417 l 833 417 l 833 279 l 694 279 l 694 0 l 556 0 l 556 -139 l 417 -139 l 417 417 l 278 417 l 278 556 l 417 556 l 417 694 l 556 694 l 556 833 m 139 -139 l 0 -139 l 0 0 l 139 0 l 139 139 l 278 139 l 278 -139 l 417 -139 l 417 -278 l 139 -278 l 139 -139 m 278 278 l 139 278 l 139 417 l 278 417 l 278 278 m 556 833 l 417 833 l 417 972 l 556 972 l 556 833 m 694 972 l 556 972 l 556 1111 l 694 1111 l 694 972 m 972 417 l 833 417 l 833 556 l 972 556 l 972 417 "},"k":{"ha":972,"x_min":0,"x_max":833,"o":"m 694 556 l 694 417 l 833 417 l 833 0 l 694 0 l 694 -139 l 556 -139 l 556 278 l 417 278 l 417 0 l 278 0 l 278 -139 l 139 -139 l 139 694 l 0 694 l 0 833 l 139 833 l 139 972 l 278 972 l 278 1111 l 417 1111 l 417 694 l 556 694 l 556 833 l 694 833 l 694 694 l 833 694 l 833 556 l 694 556 m 556 -278 l 417 -278 l 417 -139 l 556 -139 l 556 -278 m 417 556 l 417 417 l 556 417 l 556 556 l 417 556 "},"l":{"ha":972,"x_min":139,"x_max":972,"o":"m 278 417 l 139 417 l 139 694 l 278 694 l 278 417 m 417 278 l 278 278 l 278 417 l 417 417 l 417 694 l 278 694 l 278 833 l 417 833 l 417 972 l 556 972 l 556 1111 l 694 1111 l 694 139 l 833 139 l 833 0 l 694 0 l 694 -139 l 556 -139 l 556 0 l 417 0 l 417 278 m 972 139 l 833 139 l 833 278 l 972 278 l 972 139 "},"m":{"ha":972,"x_min":0,"x_max":972,"o":"m 556 0 l 694 0 l 694 -139 l 833 -139 l 833 0 l 972 0 l 972 139 l 833 139 l 833 833 l 694 833 l 694 692 l 556 692 l 556 833 l 417 833 l 417 692 l 278 692 l 278 833 l 139 833 l 139 694 l 0 694 l 0 0 l 139 0 l 139 -139 l 278 -139 l 278 0 l 417 0 l 417 -139 l 556 -139 l 556 0 m 417 139 l 278 139 l 278 418 l 417 418 l 417 139 m 694 139 l 556 139 l 556 418 l 694 418 l 694 139 "},"n":{"ha":972,"x_min":0,"x_max":972,"o":"m 833 0 l 833 -139 l 694 -139 l 694 0 l 556 0 l 556 694 l 417 694 l 417 833 l 694 833 l 694 694 l 833 694 l 833 139 l 972 139 l 972 0 l 833 0 m 139 556 l 0 556 l 0 694 l 139 694 l 139 833 l 278 833 l 278 694 l 417 694 l 417 -139 l 278 -139 l 278 0 l 139 0 l 139 556 "},"ñ":{"ha":972,"x_min":0,"x_max":972,"o":"m 417 972 l 278 972 l 278 833 l 417 833 l 417 972 m 0 694 l 0 556 l 139 556 l 139 0 l 278 0 l 278 -139 l 417 -139 l 417 694 l 278 694 l 278 833 l 139 833 l 139 694 l 0 694 m 417 833 l 417 694 l 556 694 l 556 0 l 694 0 l 694 -139 l 833 -139 l 833 0 l 972 0 l 972 139 l 833 139 l 833 694 l 694 694 l 694 972 l 556 972 l 556 833 l 417 833 m 417 1111 l 417 972 l 556 972 l 556 1111 l 417 1111 m 694 1111 l 694 972 l 833 972 l 833 1111 l 694 1111 "},"o":{"ha":972,"x_min":139,"x_max":833,"o":"m 694 139 l 694 0 l 556 0 l 556 694 l 417 694 l 417 833 l 694 833 l 694 694 l 833 694 l 833 139 l 694 139 m 278 0 l 139 0 l 139 556 l 278 556 l 278 694 l 417 694 l 417 0 l 556 0 l 556 -139 l 278 -139 l 278 0 "},"ó":{"ha":972,"x_min":139,"x_max":833,"o":"m 694 972 l 556 972 l 556 1111 l 694 1111 l 694 972 m 278 0 l 139 0 l 139 556 l 278 556 l 278 694 l 417 694 l 417 0 l 556 0 l 556 -139 l 278 -139 l 278 0 m 556 694 l 417 694 l 417 972 l 556 972 l 556 833 l 694 833 l 694 694 l 833 694 l 833 139 l 694 139 l 694 0 l 556 0 l 556 694 "},"ô":{"ha":972,"x_min":139,"x_max":833,"o":"m 694 972 l 417 972 l 417 1111 l 694 1111 l 694 972 m 278 0 l 139 0 l 139 556 l 278 556 l 278 694 l 417 694 l 417 0 l 556 0 l 556 -139 l 278 -139 l 278 0 m 417 833 l 278 833 l 278 972 l 417 972 l 417 833 m 556 694 l 417 694 l 417 833 l 694 833 l 694 694 l 833 694 l 833 139 l 694 139 l 694 0 l 556 0 l 556 694 m 833 833 l 694 833 l 694 972 l 833 972 l 833 833 "},"ö":{"ha":972,"x_min":139,"x_max":833,"o":"m 694 972 l 556 972 l 556 1111 l 694 1111 l 694 972 m 278 0 l 139 0 l 139 556 l 278 556 l 278 694 l 417 694 l 417 0 l 556 0 l 556 -139 l 278 -139 l 278 0 m 417 972 l 278 972 l 278 1111 l 417 1111 l 417 972 m 556 694 l 417 694 l 417 833 l 694 833 l 694 694 l 833 694 l 833 139 l 694 139 l 694 0 l 556 0 l 556 694 "},"ò":{"ha":972,"x_min":139,"x_max":833,"o":"m 417 1111 l 556 1111 l 556 972 l 417 972 l 417 1111 m 278 0 l 139 0 l 139 556 l 278 556 l 278 694 l 417 694 l 417 0 l 556 0 l 556 -139 l 278 -139 l 278 0 m 556 694 l 417 694 l 417 833 l 556 833 l 556 972 l 694 972 l 694 694 l 833 694 l 833 139 l 694 139 l 694 0 l 556 0 l 556 694 "},"ø":{"ha":972,"x_min":0,"x_max":972,"o":"m 139 -139 l 0 -139 l 0 0 l 139 0 l 139 -139 m 278 0 l 139 0 l 139 556 l 278 556 l 278 694 l 417 694 l 417 417 l 556 417 l 556 694 l 417 694 l 417 833 l 694 833 l 694 694 l 833 694 l 833 139 l 694 139 l 694 0 l 556 0 l 556 278 l 417 278 l 417 0 l 556 0 l 556 -139 l 278 -139 l 278 0 m 972 694 l 833 694 l 833 833 l 972 833 l 972 694 "},"œ":{"ha":972,"x_min":0,"x_max":972,"o":"m 278 833 l 278 694 l 139 694 l 139 556 l 0 556 l 0 0 l 139 0 l 139 -139 l 833 -139 l 833 0 l 556 0 l 556 278 l 694 278 l 694 417 l 556 417 l 556 694 l 694 694 l 694 417 l 972 417 l 972 694 l 833 694 l 833 833 l 278 833 m 417 0 l 278 0 l 278 694 l 417 694 l 417 0 m 833 139 l 833 0 l 972 0 l 972 139 l 833 139 "},"p":{"ha":972,"x_min":0,"x_max":833,"o":"m 278 -139 l 139 -139 l 139 556 l 0 556 l 0 694 l 139 694 l 139 833 l 278 833 l 278 694 l 417 694 l 417 139 l 556 139 l 556 0 l 417 0 l 417 -278 l 278 -278 l 278 -139 m 556 694 l 417 694 l 417 833 l 694 833 l 694 694 l 833 694 l 833 278 l 694 278 l 694 139 l 556 139 l 556 694 "},"q":{"ha":972,"x_min":139,"x_max":972,"o":"m 972 694 l 833 694 l 833 833 l 972 833 l 972 694 m 278 139 l 139 139 l 139 556 l 278 556 l 278 694 l 417 694 l 417 139 l 556 139 l 556 694 l 417 694 l 417 833 l 694 833 l 694 694 l 833 694 l 833 -139 l 694 -139 l 694 -278 l 556 -278 l 556 0 l 278 0 l 278 139 "},"r":{"ha":972,"x_min":0,"x_max":833,"o":"m 417 0 l 417 -139 l 278 -139 l 278 0 l 139 0 l 139 556 l 0 556 l 0 694 l 139 694 l 139 833 l 278 833 l 278 694 l 417 694 l 417 139 l 556 139 l 556 0 l 417 0 m 556 694 l 417 694 l 417 833 l 694 833 l 694 694 l 833 694 l 833 417 l 694 417 l 694 278 l 556 278 l 556 694 "},"s":{"ha":972,"x_min":0,"x_max":972,"o":"m 833 139 l 694 139 l 694 0 l 556 0 l 556 278 l 417 278 l 417 139 l 278 139 l 278 278 l 139 278 l 139 556 l 278 556 l 278 694 l 417 694 l 417 417 l 556 417 l 556 556 l 694 556 l 694 417 l 833 417 l 833 139 m 139 -139 l 0 -139 l 0 0 l 139 0 l 139 -139 m 278 0 l 139 0 l 139 139 l 278 139 l 278 0 m 556 -139 l 278 -139 l 278 0 l 556 0 l 556 -139 m 694 694 l 417 694 l 417 833 l 694 833 l 694 694 m 833 556 l 694 556 l 694 694 l 833 694 l 833 556 m 972 694 l 833 694 l 833 833 l 972 833 l 972 694 "},"ß":{"ha":972,"x_min":139,"x_max":972,"o":"m 556 139 l 417 139 l 417 556 l 556 556 l 556 694 l 417 694 l 417 972 l 278 972 l 278 833 l 139 833 l 139 0 l 278 0 l 278 -139 l 417 -139 l 417 0 l 556 0 l 556 139 m 417 1111 l 417 972 l 556 972 l 556 1111 l 417 1111 m 556 -139 l 556 -278 l 694 -278 l 694 -139 l 556 -139 m 556 417 l 556 278 l 694 278 l 694 139 l 833 139 l 833 0 l 972 0 l 972 417 l 833 417 l 833 556 l 972 556 l 972 833 l 833 833 l 833 972 l 694 972 l 694 833 l 556 833 l 556 694 l 694 694 l 694 417 l 556 417 m 694 0 l 694 -139 l 833 -139 l 833 0 l 694 0 "},"t":{"ha":972,"x_min":139,"x_max":833,"o":"m 694 0 l 556 0 l 556 -139 l 417 -139 l 417 0 l 278 0 l 278 556 l 139 556 l 139 694 l 278 694 l 278 833 l 417 833 l 417 972 l 556 972 l 556 694 l 833 694 l 833 556 l 556 556 l 556 139 l 694 139 l 694 0 m 833 139 l 694 139 l 694 278 l 833 278 l 833 139 "},"u":{"ha":972,"x_min":0,"x_max":972,"o":"m 139 417 l 0 417 l 0 556 l 139 556 l 139 694 l 278 694 l 278 833 l 417 833 l 417 0 l 556 0 l 556 -139 l 278 -139 l 278 0 l 139 0 l 139 417 m 694 0 l 556 0 l 556 694 l 694 694 l 694 833 l 833 833 l 833 139 l 972 139 l 972 0 l 833 0 l 833 -139 l 694 -139 l 694 0 "},"ú":{"ha":972,"x_min":0,"x_max":972,"o":"m 694 972 l 556 972 l 556 1111 l 694 1111 l 694 972 m 139 417 l 0 417 l 0 556 l 139 556 l 139 694 l 278 694 l 278 833 l 417 833 l 417 0 l 556 0 l 556 -139 l 278 -139 l 278 0 l 139 0 l 139 417 m 556 833 l 417 833 l 417 972 l 556 972 l 556 833 m 694 0 l 556 0 l 556 694 l 694 694 l 694 833 l 833 833 l 833 139 l 972 139 l 972 0 l 833 0 l 833 -139 l 694 -139 l 694 0 "},"û":{"ha":972,"x_min":0,"x_max":972,"o":"m 556 972 l 417 972 l 417 1111 l 556 1111 l 556 972 m 139 278 l 0 278 l 0 417 l 139 417 l 139 556 l 278 556 l 278 694 l 417 694 l 417 0 l 556 0 l 556 -139 l 278 -139 l 278 0 l 139 0 l 139 278 m 417 833 l 278 833 l 278 972 l 417 972 l 417 833 m 694 0 l 556 0 l 556 556 l 694 556 l 694 694 l 833 694 l 833 139 l 972 139 l 972 0 l 833 0 l 833 -139 l 694 -139 l 694 0 m 694 833 l 556 833 l 556 972 l 694 972 l 694 833 "},"ü":{"ha":972,"x_min":0,"x_max":972,"o":"m 694 972 l 556 972 l 556 1111 l 694 1111 l 694 972 m 139 417 l 0 417 l 0 556 l 139 556 l 139 694 l 278 694 l 278 833 l 417 833 l 417 0 l 556 0 l 556 -139 l 278 -139 l 278 0 l 139 0 l 139 417 m 417 972 l 278 972 l 278 1111 l 417 1111 l 417 972 m 694 0 l 556 0 l 556 694 l 694 694 l 694 833 l 833 833 l 833 139 l 972 139 l 972 0 l 833 0 l 833 -139 l 694 -139 l 694 0 "},"ù":{"ha":972,"x_min":0,"x_max":972,"o":"m 278 1111 l 417 1111 l 417 972 l 278 972 l 278 1111 m 139 417 l 0 417 l 0 556 l 139 556 l 139 694 l 278 694 l 278 833 l 417 833 l 417 0 l 556 0 l 556 -139 l 278 -139 l 278 0 l 139 0 l 139 417 m 556 833 l 417 833 l 417 972 l 556 972 l 556 833 m 694 0 l 556 0 l 556 694 l 694 694 l 694 833 l 833 833 l 833 139 l 972 139 l 972 0 l 833 0 l 833 -139 l 694 -139 l 694 0 "},"v":{"ha":972,"x_min":0,"x_max":833,"o":"m 139 556 l 0 556 l 0 694 l 139 694 l 139 833 l 278 833 l 278 694 l 417 694 l 417 0 l 556 0 l 556 -139 l 278 -139 l 278 0 l 139 0 l 139 556 m 694 0 l 556 0 l 556 833 l 694 833 l 694 694 l 833 694 l 833 139 l 694 139 l 694 0 "},"w":{"ha":972,"x_min":0,"x_max":972,"o":"m 556 0 l 694 0 l 694 -139 l 833 -139 l 833 0 l 972 0 l 972 139 l 833 139 l 833 833 l 694 833 l 694 692 l 556 692 l 556 833 l 417 833 l 417 692 l 278 692 l 278 833 l 139 833 l 139 694 l 0 694 l 0 0 l 139 0 l 139 -139 l 278 -139 l 278 0 l 417 0 l 417 -139 l 556 -139 l 556 0 m 417 278 l 278 278 l 278 557 l 417 557 l 417 278 m 694 278 l 556 278 l 556 557 l 694 557 l 694 278 "},"x":{"ha":972,"x_min":0,"x_max":833,"o":"m 417 -139 l 556 -139 l 556 0 l 694 0 l 694 139 l 556 139 l 556 694 l 417 694 l 417 833 l 278 833 l 278 694 l 139 694 l 139 556 l 278 556 l 278 0 l 417 0 l 417 -139 m 0 139 l 0 -139 l 278 -139 l 278 0 l 139 0 l 139 139 l 0 139 m 0 556 l 0 417 l 139 417 l 139 556 l 0 556 m 556 833 l 556 694 l 694 694 l 694 556 l 833 556 l 833 833 l 556 833 m 694 278 l 694 139 l 833 139 l 833 278 l 694 278 "},"y":{"ha":972,"x_min":0,"x_max":833,"o":"m 694 -139 l 694 0 l 833 0 l 833 694 l 694 694 l 694 833 l 556 833 l 556 139 l 417 139 l 417 694 l 278 694 l 278 833 l 139 833 l 139 694 l 0 694 l 0 556 l 139 556 l 139 139 l 278 139 l 278 0 l 556 0 l 556 -139 l 694 -139 m 139 0 l 139 -139 l 278 -139 l 278 0 l 139 0 m 278 -139 l 278 -278 l 556 -278 l 556 -139 l 278 -139 "},"ý":{"ha":972,"x_min":0,"x_max":833,"o":"m 694 -139 l 694 0 l 833 0 l 833 694 l 694 694 l 694 833 l 556 833 l 556 139 l 417 139 l 417 694 l 278 694 l 278 833 l 139 833 l 139 694 l 0 694 l 0 556 l 139 556 l 139 139 l 278 139 l 278 0 l 556 0 l 556 -139 l 694 -139 m 139 0 l 139 -139 l 278 -139 l 278 0 l 139 0 m 278 -139 l 278 -278 l 556 -278 l 556 -139 l 278 -139 m 417 972 l 278 972 l 278 833 l 417 833 l 417 972 m 417 1111 l 417 972 l 556 972 l 556 1111 l 417 1111 "},"ÿ":{"ha":972,"x_min":0,"x_max":833,"o":"m 694 -139 l 694 0 l 833 0 l 833 694 l 694 694 l 694 833 l 556 833 l 556 139 l 417 139 l 417 694 l 278 694 l 278 833 l 139 833 l 139 694 l 0 694 l 0 556 l 139 556 l 139 139 l 278 139 l 278 0 l 556 0 l 556 -139 l 694 -139 m 139 0 l 139 -139 l 278 -139 l 278 0 l 139 0 m 278 -139 l 278 -278 l 556 -278 l 556 -139 l 278 -139 m 417 972 l 417 1111 l 278 1111 l 278 972 l 417 972 m 556 1111 l 556 972 l 694 972 l 694 1111 l 556 1111 "},"z":{"ha":972,"x_min":0,"x_max":833,"o":"m 417 694 l 278 694 l 278 833 l 833 833 l 833 694 l 694 694 l 694 556 l 556 556 l 556 417 l 694 417 l 694 278 l 833 278 l 833 0 l 694 0 l 694 -139 l 556 -139 l 556 139 l 417 139 l 417 278 l 278 278 l 278 417 l 417 417 l 417 694 m 139 417 l 0 417 l 0 556 l 139 556 l 139 417 m 278 -139 l 139 -139 l 139 0 l 278 0 l 278 -139 m 278 556 l 139 556 l 139 694 l 278 694 l 278 556 m 556 -278 l 278 -278 l 278 -139 l 556 -139 l 556 -278 m 417 0 l 278 0 l 278 139 l 417 139 l 417 0 "},"º":{"ha":972,"x_min":139,"x_max":833,"o":"m 694 694 l 694 556 l 556 556 l 556 972 l 417 972 l 417 1111 l 694 1111 l 694 972 l 833 972 l 833 694 l 694 694 m 278 556 l 139 556 l 139 833 l 278 833 l 278 972 l 417 972 l 417 556 l 556 556 l 556 417 l 278 417 l 278 556 "},"⁄":{"ha":972,"x_min":278,"x_max":694,"o":"m 694 694 l 556 694 l 556 1111 l 694 1111 l 694 694 m 417 -139 l 278 -139 l 278 278 l 417 278 l 417 -139 m 556 278 l 417 278 l 417 694 l 556 694 l 556 278 "},".":{"ha":972,"x_min":278,"x_max":556,"o":"m 417 278 l 556 278 l 556 0 l 417 0 l 417 -139 l 278 -139 l 278 139 l 417 139 l 417 278 "},",":{"ha":972,"x_min":139,"x_max":556,"o":"m 417 278 l 556 278 l 556 0 l 417 0 l 417 -139 l 278 -139 l 278 139 l 417 139 l 417 278 m 278 -278 l 139 -278 l 139 -139 l 278 -139 l 278 -278 "},":":{"ha":972,"x_min":278,"x_max":556,"o":"m 417 -139 l 278 -139 l 278 139 l 417 139 l 417 278 l 556 278 l 556 0 l 417 0 l 417 -139 m 417 417 l 278 417 l 278 694 l 417 694 l 417 833 l 556 833 l 556 556 l 417 556 l 417 417 "},";":{"ha":972,"x_min":139,"x_max":556,"o":"m 417 694 l 278 694 l 278 417 l 417 417 l 417 556 l 556 556 l 556 833 l 417 833 l 417 694 m 139 -139 l 139 -278 l 278 -278 l 278 -139 l 139 -139 m 278 139 l 278 -139 l 417 -139 l 417 0 l 556 0 l 556 278 l 417 278 l 417 139 l 278 139 "},"…":{"ha":972,"x_min":139,"x_max":833,"o":"m 278 -139 l 139 -139 l 139 139 l 278 139 l 278 -139 m 556 -139 l 417 -139 l 417 139 l 556 139 l 556 -139 m 833 -139 l 694 -139 l 694 139 l 833 139 l 833 -139 "},"!":{"ha":972,"x_min":278,"x_max":556,"o":"m 556 0 l 556 278 l 417 278 l 417 139 l 278 139 l 278 -139 l 417 -139 l 417 0 l 556 0 m 278 972 l 278 278 l 417 278 l 417 417 l 556 417 l 556 1111 l 417 1111 l 417 972 l 278 972 "},"¡":{"ha":972,"x_min":278,"x_max":556,"o":"m 278 972 l 278 694 l 417 694 l 417 833 l 556 833 l 556 1111 l 417 1111 l 417 972 l 278 972 m 278 556 l 278 -139 l 417 -139 l 417 0 l 556 0 l 556 694 l 417 694 l 417 556 l 278 556 "},"?":{"ha":972,"x_min":278,"x_max":833,"o":"m 556 972 l 417 972 l 417 1111 l 694 1111 l 694 972 l 833 972 l 833 833 l 694 833 l 694 417 l 556 417 l 556 278 l 417 278 l 417 833 l 556 833 l 556 972 m 417 833 l 278 833 l 278 972 l 417 972 l 417 833 m 556 -139 l 417 -139 l 417 139 l 556 139 l 556 278 l 694 278 l 694 0 l 556 0 l 556 -139 "},"¿":{"ha":972,"x_min":278,"x_max":833,"o":"m 556 0 l 694 0 l 694 139 l 556 139 l 556 0 m 417 0 l 278 0 l 278 139 l 417 139 l 417 556 l 556 556 l 556 694 l 417 694 l 417 972 l 556 972 l 556 1111 l 694 1111 l 694 833 l 556 833 l 556 694 l 694 694 l 694 139 l 833 139 l 833 0 l 694 0 l 694 -139 l 417 -139 l 417 0 "},"·":{"ha":972,"x_min":139,"x_max":833,"o":"m 278 417 l 139 417 l 139 278 l 278 278 l 278 139 l 417 139 l 417 0 l 556 0 l 556 139 l 694 139 l 694 278 l 833 278 l 833 417 l 694 417 l 694 556 l 556 556 l 556 694 l 417 694 l 417 556 l 278 556 l 278 417 "},"•":{"ha":972,"x_min":417,"x_max":694,"o":"m 694 556 l 417 556 l 417 278 l 694 278 l 694 556 "},"*":{"ha":972,"x_min":139,"x_max":833,"o":"m 694 556 l 556 556 l 556 694 l 694 694 l 694 556 m 278 694 l 139 694 l 139 833 l 278 833 l 278 694 m 417 556 l 278 556 l 278 694 l 417 694 l 417 556 m 417 833 l 278 833 l 278 972 l 417 972 l 417 833 m 556 417 l 417 417 l 417 556 l 556 556 l 556 417 m 556 694 l 417 694 l 417 833 l 556 833 l 556 694 m 556 972 l 417 972 l 417 1111 l 556 1111 l 556 972 m 694 833 l 556 833 l 556 972 l 694 972 l 694 833 m 833 694 l 694 694 l 694 833 l 833 833 l 833 694 "},"‼":{"ha":972,"x_min":139,"x_max":833,"o":"m 833 0 l 833 278 l 694 278 l 694 139 l 556 139 l 556 -139 l 694 -139 l 694 0 l 833 0 m 139 139 l 139 -139 l 278 -139 l 278 0 l 417 0 l 417 278 l 278 278 l 278 139 l 139 139 m 139 972 l 139 278 l 278 278 l 278 417 l 417 417 l 417 1111 l 278 1111 l 278 972 l 139 972 m 556 972 l 556 278 l 694 278 l 694 417 l 833 417 l 833 1111 l 694 1111 l 694 972 l 556 972 "},"#":{"ha":972,"x_min":0,"x_max":972,"o":"m 417 139 l 417 -139 l 556 -139 l 556 139 l 972 139 l 972 278 l 694 278 l 694 556 l 972 556 l 972 694 l 833 694 l 833 972 l 694 972 l 694 694 l 556 694 l 556 972 l 417 972 l 417 694 l 0 694 l 0 556 l 278 556 l 278 278 l 0 278 l 0 139 l 139 139 l 139 -139 l 278 -139 l 278 139 l 417 139 m 556 278 l 417 278 l 417 556 l 556 556 l 556 278 "},"/":{"ha":972,"x_min":139,"x_max":833,"o":"m 694 556 l 556 556 l 556 833 l 694 833 l 694 556 m 278 -278 l 139 -278 l 139 0 l 278 0 l 278 -278 m 417 0 l 278 0 l 278 278 l 417 278 l 417 0 m 556 278 l 417 278 l 417 556 l 556 556 l 556 278 m 833 833 l 694 833 l 694 1111 l 833 1111 l 833 833 "},"\\":{"ha":972,"x_min":139,"x_max":833,"o":"m 278 833 l 417 833 l 417 556 l 278 556 l 278 833 m 278 833 l 139 833 l 139 1111 l 278 1111 l 278 833 m 556 278 l 417 278 l 417 556 l 556 556 l 556 278 m 694 0 l 556 0 l 556 278 l 694 278 l 694 0 m 833 -278 l 694 -278 l 694 0 l 833 0 l 833 -278 "},"-":{"ha":972,"x_min":278,"x_max":833,"o":"m 694 278 l 278 278 l 278 417 l 417 417 l 417 556 l 833 556 l 833 417 l 694 417 l 694 278 "},"–":{"ha":972,"x_min":139,"x_max":833,"o":"m 694 278 l 139 278 l 139 417 l 278 417 l 278 556 l 833 556 l 833 417 l 694 417 l 694 278 "},"—":{"ha":972,"x_min":0,"x_max":972,"o":"m 833 278 l 0 278 l 0 417 l 139 417 l 139 556 l 972 556 l 972 417 l 833 417 l 833 278 "},"_":{"ha":972,"x_min":0,"x_max":972,"o":"m 833 -278 l 0 -278 l 0 -139 l 139 -139 l 139 0 l 972 0 l 972 -139 l 833 -139 l 833 -278 "},"(":{"ha":972,"x_min":139,"x_max":694,"o":"m 417 -139 l 278 -139 l 278 139 l 139 139 l 139 833 l 278 833 l 278 417 l 417 417 l 417 139 l 556 139 l 556 0 l 694 0 l 694 -139 l 556 -139 l 556 -278 l 417 -278 l 417 -139 m 417 833 l 278 833 l 278 972 l 417 972 l 417 833 m 556 972 l 417 972 l 417 1111 l 556 1111 l 556 972 "},")":{"ha":972,"x_min":139,"x_max":694,"o":"m 417 972 l 556 972 l 556 694 l 694 694 l 694 0 l 556 0 l 556 417 l 417 417 l 417 694 l 278 694 l 278 833 l 139 833 l 139 972 l 278 972 l 278 1111 l 417 1111 l 417 972 m 417 -278 l 278 -278 l 278 -139 l 417 -139 l 417 -278 m 556 -139 l 417 -139 l 417 0 l 556 0 l 556 -139 "},"{":{"ha":972,"x_min":139,"x_max":833,"o":"m 278 556 l 139 556 l 139 278 l 278 278 l 278 -139 l 556 -139 l 556 278 l 417 278 l 417 556 l 556 556 l 556 972 l 278 972 l 278 556 m 556 -139 l 556 -278 l 833 -278 l 833 -139 l 556 -139 m 556 1111 l 556 972 l 833 972 l 833 1111 l 556 1111 "},"}":{"ha":972,"x_min":139,"x_max":833,"o":"m 694 278 l 833 278 l 833 556 l 694 556 l 694 972 l 417 972 l 417 556 l 556 556 l 556 278 l 417 278 l 417 -139 l 694 -139 l 694 278 m 139 -139 l 139 -278 l 417 -278 l 417 -139 l 139 -139 m 139 1111 l 139 972 l 417 972 l 417 1111 l 139 1111 "},"[":{"ha":972,"x_min":278,"x_max":833,"o":"m 833 1111 l 278 1111 l 278 -278 l 833 -278 l 833 -139 l 556 -139 l 556 972 l 833 972 l 833 1111 "},"]":{"ha":972,"x_min":139,"x_max":694,"o":"m 139 -278 l 694 -278 l 694 1111 l 139 1111 l 139 972 l 417 972 l 417 -139 l 139 -139 l 139 -278 "},"‚":{"ha":972,"x_min":278,"x_max":556,"o":"m 278 -278 l 417 -278 l 417 -139 l 556 -139 l 556 139 l 417 139 l 417 0 l 278 0 l 278 -278 "},"„":{"ha":972,"x_min":139,"x_max":833,"o":"m 556 -278 l 694 -278 l 694 -139 l 833 -139 l 833 139 l 694 139 l 694 0 l 556 0 l 556 -278 m 139 0 l 139 -278 l 278 -278 l 278 -139 l 417 -139 l 417 139 l 278 139 l 278 0 l 139 0 "},"“":{"ha":972,"x_min":0,"x_max":833,"o":"m 417 694 l 417 556 l 556 556 l 556 417 l 694 417 l 694 556 l 833 556 l 833 694 l 694 694 l 694 833 l 556 833 l 556 694 l 417 694 m 0 833 l 0 694 l 139 694 l 139 556 l 278 556 l 278 694 l 417 694 l 417 833 l 278 833 l 278 972 l 139 972 l 139 833 l 0 833 m 278 1111 l 278 972 l 417 972 l 417 1111 l 278 1111 m 694 972 l 694 833 l 833 833 l 833 972 l 694 972 "},"”":{"ha":972,"x_min":139,"x_max":972,"o":"m 556 833 l 556 972 l 417 972 l 417 1111 l 278 1111 l 278 972 l 139 972 l 139 833 l 278 833 l 278 694 l 417 694 l 417 833 l 556 833 m 139 694 l 139 556 l 278 556 l 278 694 l 139 694 m 556 556 l 556 417 l 694 417 l 694 556 l 556 556 m 556 833 l 556 694 l 694 694 l 694 556 l 833 556 l 833 694 l 972 694 l 972 833 l 833 833 l 833 972 l 694 972 l 694 833 l 556 833 "},"‘":{"ha":972,"x_min":278,"x_max":694,"o":"m 556 694 l 694 694 l 694 833 l 556 833 l 556 972 l 417 972 l 417 833 l 278 833 l 278 694 l 417 694 l 417 556 l 556 556 l 556 694 m 556 1111 l 556 972 l 694 972 l 694 1111 l 556 1111 "},"’":{"ha":972,"x_min":278,"x_max":694,"o":"m 694 833 l 694 972 l 556 972 l 556 1111 l 417 1111 l 417 972 l 278 972 l 278 833 l 417 833 l 417 694 l 556 694 l 556 833 l 694 833 m 278 694 l 278 556 l 417 556 l 417 694 l 278 694 "},"«":{"ha":972,"x_min":0,"x_max":972,"o":"m 278 556 l 417 556 l 417 694 l 278 694 l 278 556 m 0 417 l 0 278 l 139 278 l 139 139 l 278 139 l 278 0 l 417 0 l 417 139 l 556 139 l 556 278 l 417 278 l 417 417 l 278 417 l 278 556 l 139 556 l 139 417 l 0 417 m 417 556 l 417 417 l 556 417 l 556 278 l 694 278 l 694 139 l 833 139 l 833 278 l 972 278 l 972 417 l 833 417 l 833 556 l 694 556 l 694 694 l 556 694 l 556 556 l 417 556 m 694 833 l 694 694 l 833 694 l 833 833 l 694 833 "},"»":{"ha":972,"x_min":0,"x_max":972,"o":"m 417 278 l 556 278 l 556 417 l 417 417 l 417 556 l 278 556 l 278 694 l 139 694 l 139 556 l 0 556 l 0 417 l 139 417 l 139 278 l 278 278 l 278 139 l 417 139 l 417 278 m 139 139 l 139 0 l 278 0 l 278 139 l 139 139 m 417 694 l 417 556 l 556 556 l 556 417 l 694 417 l 694 278 l 833 278 l 833 417 l 972 417 l 972 556 l 833 556 l 833 694 l 694 694 l 694 833 l 556 833 l 556 694 l 417 694 m 556 278 l 556 139 l 694 139 l 694 278 l 556 278 "},"‹":{"ha":972,"x_min":139,"x_max":694,"o":"m 278 417 l 139 417 l 139 278 l 278 278 l 278 139 l 417 139 l 417 0 l 556 0 l 556 139 l 694 139 l 694 278 l 556 278 l 556 417 l 417 417 l 417 556 l 278 556 l 278 417 m 417 694 l 417 556 l 556 556 l 556 694 l 417 694 "},"›":{"ha":972,"x_min":139,"x_max":694,"o":"m 556 278 l 694 278 l 694 417 l 556 417 l 556 556 l 417 556 l 417 694 l 278 694 l 278 556 l 139 556 l 139 417 l 278 417 l 278 278 l 417 278 l 417 139 l 556 139 l 556 278 m 278 139 l 278 0 l 417 0 l 417 139 l 278 139 "},"\"":{"ha":972,"x_min":139,"x_max":833,"o":"m 556 694 l 694 694 l 694 833 l 833 833 l 833 1111 l 694 1111 l 694 972 l 556 972 l 556 694 m 139 972 l 139 694 l 278 694 l 278 833 l 417 833 l 417 1111 l 278 1111 l 278 972 l 139 972 "},"'":{"ha":972,"x_min":278,"x_max":556,"o":"m 278 694 l 417 694 l 417 833 l 556 833 l 556 1111 l 417 1111 l 417 972 l 278 972 l 278 694 "},"@":{"ha":972,"x_min":0,"x_max":972,"o":"m 694 556 l 556 556 l 556 417 l 694 417 l 694 139 l 833 139 l 833 278 l 972 278 l 972 556 l 833 556 l 833 694 l 694 694 l 694 556 m 0 556 l 0 139 l 139 139 l 139 0 l 278 0 l 278 556 l 417 556 l 417 694 l 694 694 l 694 833 l 278 833 l 278 694 l 139 694 l 139 556 l 0 556 m 278 0 l 278 -139 l 417 -139 l 417 0 l 278 0 m 417 417 l 417 139 l 556 139 l 556 417 l 417 417 m 556 139 l 556 0 l 694 0 l 694 139 l 556 139 "},"&":{"ha":972,"x_min":0,"x_max":972,"o":"m 139 972 l 278 972 l 278 1111 l 556 1111 l 556 833 l 417 833 l 417 972 l 694 972 l 694 694 l 833 694 l 833 556 l 694 556 l 694 139 l 833 139 l 833 0 l 694 0 l 694 -139 l 556 -139 l 556 0 l 417 0 l 417 556 l 278 556 l 278 0 l 139 0 l 139 139 l 0 139 l 0 833 l 139 833 l 139 972 m 417 -139 l 278 -139 l 278 0 l 417 0 l 417 -139 m 278 833 l 278 694 l 417 694 l 417 833 l 278 833 m 833 972 l 694 972 l 694 1111 l 833 1111 l 833 972 m 972 139 l 833 139 l 833 278 l 972 278 l 972 139 "},"¶":{"ha":972,"x_min":0,"x_max":972,"o":"m 556 972 l 694 972 l 694 -278 l 833 -278 l 833 972 l 972 972 l 972 1111 l 139 1111 l 139 972 l 0 972 l 0 556 l 139 556 l 139 417 l 417 417 l 417 -278 l 556 -278 l 556 972 "},"§":{"ha":972,"x_min":139,"x_max":833,"o":"m 556 833 l 556 694 l 417 694 l 417 972 l 278 972 l 278 833 l 139 833 l 139 556 l 278 556 l 278 417 l 139 417 l 139 139 l 278 139 l 278 0 l 417 0 l 417 139 l 556 139 l 556 -139 l 694 -139 l 694 0 l 833 0 l 833 278 l 694 278 l 694 417 l 833 417 l 833 694 l 694 694 l 694 833 l 556 833 m 278 -139 l 278 -278 l 556 -278 l 556 -139 l 278 -139 m 556 278 l 417 278 l 417 556 l 556 556 l 556 278 m 417 1111 l 417 972 l 694 972 l 694 1111 l 417 1111 "},"°":{"ha":972,"x_min":278,"x_max":694,"o":"m 278 694 l 417 694 l 417 833 l 278 833 l 278 694 m 417 694 l 417 556 l 556 556 l 556 694 l 417 694 m 417 972 l 417 833 l 556 833 l 556 972 l 417 972 m 556 833 l 556 694 l 694 694 l 694 833 l 556 833 "},"|":{"ha":972,"x_min":417,"x_max":556,"o":"m 556 1111 l 417 1111 l 417 -278 l 556 -278 l 556 1111 "},"¦":{"ha":972,"x_min":417,"x_max":556,"o":"m 417 556 l 556 556 l 556 1111 l 417 1111 l 417 556 m 417 278 l 417 -278 l 556 -278 l 556 278 l 417 278 "},"†":{"ha":972,"x_min":278,"x_max":833,"o":"m 556 971 l 417 971 l 417 833 l 278 833 l 278 694 l 417 694 l 417 -278 l 556 -278 l 556 -139 l 694 -139 l 694 694 l 833 694 l 833 833 l 694 833 l 694 1111 l 556 1111 l 556 971 "},"‡":{"ha":972,"x_min":278,"x_max":833,"o":"m 417 833 l 278 833 l 278 694 l 417 694 l 417 139 l 278 139 l 278 0 l 417 0 l 417 -278 l 556 -278 l 556 -139 l 694 -139 l 694 0 l 833 0 l 833 139 l 694 139 l 694 694 l 833 694 l 833 833 l 694 833 l 694 1111 l 556 1111 l 556 971 l 417 971 l 417 833 "},"€":{"ha":972,"x_min":0,"x_max":833,"o":"m 417 694 l 417 972 l 278 972 l 278 833 l 139 833 l 139 556 l 0 556 l 0 417 l 139 417 l 139 0 l 278 0 l 278 -139 l 556 -139 l 556 0 l 417 0 l 417 417 l 556 417 l 556 556 l 694 556 l 694 694 l 417 694 m 417 1111 l 417 972 l 694 972 l 694 1111 l 417 1111 m 556 139 l 556 0 l 694 0 l 694 139 l 556 139 m 694 972 l 694 833 l 833 833 l 833 972 l 694 972 "},"¢":{"ha":972,"x_min":139,"x_max":833,"o":"m 278 -139 l 556 -139 l 556 -278 l 694 -278 l 694 0 l 833 0 l 833 139 l 694 139 l 694 556 l 833 556 l 833 694 l 694 694 l 694 972 l 556 972 l 556 833 l 417 833 l 417 694 l 556 694 l 556 0 l 417 0 l 417 694 l 278 694 l 278 556 l 139 556 l 139 0 l 278 0 l 278 -139 "},"$":{"ha":972,"x_min":139,"x_max":833,"o":"m 556 694 l 556 556 l 417 556 l 417 833 l 694 833 l 694 972 l 556 972 l 556 1111 l 417 1111 l 417 972 l 278 972 l 278 833 l 139 833 l 139 417 l 278 417 l 278 278 l 417 278 l 417 417 l 556 417 l 556 139 l 278 139 l 278 0 l 417 0 l 417 -139 l 556 -139 l 556 0 l 694 0 l 694 139 l 833 139 l 833 556 l 694 556 l 694 694 l 556 694 m 139 0 l 139 -139 l 278 -139 l 278 0 l 139 0 m 694 1111 l 694 972 l 833 972 l 833 1111 l 694 1111 "},"£":{"ha":972,"x_min":0,"x_max":972,"o":"m 694 0 l 694 278 l 833 278 l 833 417 l 694 417 l 694 556 l 833 556 l 833 694 l 694 694 l 694 833 l 833 833 l 833 972 l 694 972 l 694 1111 l 417 1111 l 417 972 l 556 972 l 556 694 l 417 694 l 417 972 l 278 972 l 278 833 l 139 833 l 139 694 l 0 694 l 0 556 l 139 556 l 139 417 l 0 417 l 0 278 l 139 278 l 139 0 l 417 0 l 417 -139 l 833 -139 l 833 0 l 694 0 m 0 0 l 0 -139 l 139 -139 l 139 0 l 0 0 m 556 139 l 417 139 l 417 278 l 556 278 l 556 139 m 556 417 l 417 417 l 417 556 l 556 556 l 556 417 m 833 139 l 833 0 l 972 0 l 972 139 l 833 139 m 833 1111 l 833 972 l 972 972 l 972 1111 l 833 1111 "},"¥":{"ha":972,"x_min":0,"x_max":833,"o":"m 0 139 l 278 139 l 278 -139 l 417 -139 l 417 0 l 556 0 l 556 139 l 833 139 l 833 278 l 556 278 l 556 417 l 833 417 l 833 556 l 694 556 l 694 694 l 833 694 l 833 972 l 694 972 l 694 1111 l 556 1111 l 556 556 l 417 556 l 417 972 l 278 972 l 278 1111 l 139 1111 l 139 972 l 0 972 l 0 833 l 139 833 l 139 556 l 0 556 l 0 417 l 278 417 l 278 278 l 0 278 l 0 139 "},"+":{"ha":972,"x_min":139,"x_max":972,"o":"m 417 278 l 139 278 l 139 417 l 278 417 l 278 556 l 417 556 l 417 833 l 556 833 l 556 972 l 694 972 l 694 556 l 972 556 l 972 417 l 833 417 l 833 278 l 694 278 l 694 0 l 556 0 l 556 -139 l 417 -139 l 417 278 "},"−":{"ha":972,"x_min":278,"x_max":833,"o":"m 694 278 l 278 278 l 278 417 l 417 417 l 417 556 l 833 556 l 833 417 l 694 417 l 694 278 "},"×":{"ha":972,"x_min":139,"x_max":833,"o":"m 556 139 l 694 139 l 694 278 l 556 278 l 556 139 m 139 139 l 139 0 l 278 0 l 278 139 l 139 139 m 139 694 l 139 556 l 278 556 l 278 694 l 139 694 m 278 278 l 278 139 l 417 139 l 417 278 l 278 278 m 278 556 l 278 417 l 417 417 l 417 556 l 278 556 m 417 417 l 417 278 l 556 278 l 556 417 l 417 417 m 556 556 l 556 417 l 694 417 l 694 556 l 556 556 m 694 139 l 694 0 l 833 0 l 833 139 l 694 139 m 694 694 l 694 556 l 833 556 l 833 694 l 694 694 "},"÷":{"ha":972,"x_min":139,"x_max":833,"o":"m 833 417 l 139 417 l 139 278 l 833 278 l 833 417 m 417 139 l 417 0 l 556 0 l 556 139 l 417 139 m 417 694 l 417 556 l 556 556 l 556 694 l 417 694 "},"=":{"ha":972,"x_min":139,"x_max":972,"o":"m 833 0 l 139 0 l 139 139 l 278 139 l 278 278 l 972 278 l 972 139 l 833 139 l 833 0 m 833 417 l 139 417 l 139 556 l 278 556 l 278 694 l 972 694 l 972 556 l 833 556 l 833 417 "},">":{"ha":972,"x_min":139,"x_max":833,"o":"m 417 833 l 278 833 l 278 694 l 139 694 l 139 556 l 278 556 l 278 417 l 417 417 l 417 278 l 556 278 l 556 139 l 694 139 l 694 278 l 833 278 l 833 417 l 694 417 l 694 556 l 556 556 l 556 694 l 417 694 l 417 833 m 278 0 l 278 -139 l 417 -139 l 417 0 l 278 0 m 417 139 l 417 0 l 556 0 l 556 139 l 417 139 "},"<":{"ha":972,"x_min":139,"x_max":833,"o":"m 556 -139 l 694 -139 l 694 0 l 833 0 l 833 139 l 694 139 l 694 278 l 556 278 l 556 417 l 417 417 l 417 556 l 278 556 l 278 417 l 139 417 l 139 278 l 278 278 l 278 139 l 417 139 l 417 0 l 556 0 l 556 -139 m 417 694 l 417 556 l 556 556 l 556 694 l 417 694 m 556 833 l 556 694 l 694 694 l 694 833 l 556 833 "},"≥":{"ha":972,"x_min":139,"x_max":972,"o":"m 278 139 l 278 0 l 139 0 l 139 -139 l 833 -139 l 833 0 l 972 0 l 972 139 l 278 139 m 139 417 l 139 278 l 833 278 l 833 417 l 972 417 l 972 556 l 833 556 l 833 694 l 694 694 l 694 556 l 278 556 l 278 417 l 139 417 m 417 972 l 417 833 l 556 833 l 556 972 l 417 972 m 556 833 l 556 694 l 694 694 l 694 833 l 556 833 "},"≤":{"ha":972,"x_min":139,"x_max":972,"o":"m 278 139 l 278 0 l 139 0 l 139 -139 l 833 -139 l 833 0 l 972 0 l 972 139 l 278 139 m 139 417 l 139 278 l 833 278 l 833 417 l 972 417 l 972 556 l 556 556 l 556 694 l 417 694 l 417 556 l 278 556 l 278 417 l 139 417 m 556 833 l 556 694 l 694 694 l 694 833 l 556 833 m 694 972 l 694 833 l 833 833 l 833 972 l 694 972 "},"≈":{"ha":972,"x_min":139,"x_max":972,"o":"m 278 556 l 417 556 l 417 417 l 833 417 l 833 556 l 694 556 l 694 694 l 278 694 l 278 556 m 139 139 l 139 0 l 278 0 l 278 139 l 139 139 m 139 556 l 139 417 l 278 417 l 278 556 l 139 556 m 278 278 l 278 139 l 417 139 l 417 0 l 833 0 l 833 139 l 694 139 l 694 278 l 278 278 m 833 278 l 833 139 l 972 139 l 972 278 l 833 278 m 833 694 l 833 556 l 972 556 l 972 694 l 833 694 "},"~":{"ha":972,"x_min":139,"x_max":833,"o":"m 278 417 l 417 417 l 417 278 l 694 278 l 694 417 l 556 417 l 556 556 l 278 556 l 278 417 m 139 417 l 139 278 l 278 278 l 278 417 l 139 417 m 694 556 l 694 417 l 833 417 l 833 556 l 694 556 "},"^":{"ha":972,"x_min":278,"x_max":694,"o":"m 417 972 l 556 972 l 556 1111 l 417 1111 l 417 972 m 278 972 l 278 833 l 417 833 l 417 972 l 278 972 m 556 972 l 556 833 l 694 833 l 694 972 l 556 972 "},"%":{"ha":972,"x_min":0,"x_max":972,"o":"m 278 556 l 278 694 l 139 694 l 139 972 l 0 972 l 0 556 l 278 556 m 139 1111 l 139 972 l 278 972 l 278 694 l 417 694 l 417 1111 l 139 1111 m 417 -139 l 278 -139 l 278 278 l 417 278 l 417 694 l 556 694 l 556 1111 l 694 1111 l 694 694 l 556 694 l 556 -139 l 833 -139 l 833 0 l 694 0 l 694 278 l 417 278 l 417 -139 m 694 417 l 694 278 l 833 278 l 833 0 l 972 0 l 972 417 l 694 417 "},"‰":{"ha":972,"x_min":0,"x_max":972,"o":"m 972 278 l 417 278 l 417 139 l 556 139 l 556 0 l 417 0 l 417 139 l 278 139 l 278 -139 l 833 -139 l 833 0 l 694 0 l 694 139 l 833 139 l 833 0 l 972 0 l 972 278 m 0 417 l 0 278 l 278 278 l 278 417 l 0 417 m 0 972 l 0 694 l 278 694 l 278 833 l 139 833 l 139 972 l 0 972 m 139 1111 l 139 972 l 278 972 l 278 833 l 417 833 l 417 1111 l 139 1111 m 278 556 l 278 417 l 694 417 l 694 556 l 278 556 m 694 694 l 694 556 l 972 556 l 972 694 l 694 694 "},"¨":{"ha":972,"x_min":278,"x_max":694,"o":"m 417 833 l 417 972 l 278 972 l 278 833 l 417 833 m 556 972 l 556 833 l 694 833 l 694 972 l 556 972 "},"`":{"ha":972,"x_min":278,"x_max":556,"o":"m 417 972 l 278 972 l 278 833 l 417 833 l 417 972 m 417 833 l 417 694 l 556 694 l 556 833 l 417 833 "},"´":{"ha":972,"x_min":278,"x_max":556,"o":"m 417 833 l 278 833 l 278 694 l 417 694 l 417 833 m 417 972 l 417 833 l 556 833 l 556 972 l 417 972 "},"ˆ":{"ha":972,"x_min":278,"x_max":694,"o":"m 556 694 l 694 694 l 694 833 l 556 833 l 556 694 m 278 833 l 278 694 l 417 694 l 417 833 l 278 833 m 417 972 l 417 833 l 556 833 l 556 972 l 417 972 "},"ˇ":{"ha":972,"x_min":278,"x_max":694,"o":"m 417 694 l 556 694 l 556 833 l 417 833 l 417 694 m 278 972 l 278 833 l 417 833 l 417 972 l 278 972 m 556 972 l 556 833 l 694 833 l 694 972 l 556 972 "},"˚":{"ha":972,"x_min":278,"x_max":694,"o":"m 278 694 l 417 694 l 417 833 l 278 833 l 278 694 m 417 694 l 417 556 l 556 556 l 556 694 l 417 694 m 417 972 l 417 833 l 556 833 l 556 972 l 417 972 m 556 833 l 556 694 l 694 694 l 694 833 l 556 833 "},"˜":{"ha":972,"x_min":278,"x_max":833,"o":"m 417 972 l 556 972 l 556 1111 l 417 1111 l 417 972 m 278 972 l 278 833 l 417 833 l 417 972 l 278 972 m 556 972 l 556 833 l 694 833 l 694 972 l 556 972 m 694 1111 l 694 972 l 833 972 l 833 1111 l 694 1111 "},"¸":{"ha":972,"x_min":417,"x_max":556,"o":"m 556 0 l 417 0 l 417 -278 l 556 -278 l 556 0 "}}}
